STARTFONT 2.1
COMMENT
COMMENT Converted from OpenType font "ChivoMono-Regular.ttf" by "otf2bdf 3.0".
COMMENT
FONT -FreeType-chivo mono-Medium-R-Normal--14-100-100-100-P-67-ISO10646-1
SIZE 10 100 100
FONTBOUNDINGBOX 10 19 -1 -4
STARTPROPERTIES 19
FOUNDRY "FreeType"
FAMILY_NAME "chivo mono"
WEIGHT_NAME "Medium"
SLANT "R"
SETWIDTH_NAME "Normal"
ADD_STYLE_NAME ""
PIXEL_SIZE 14
POINT_SIZE 100
RESOLUTION_X 100
RESOLUTION_Y 100
SPACING "P"
AVERAGE_WIDTH 67
CHARSET_REGISTRY "ISO10646"
CHARSET_ENCODING "1"
FONT_ASCENT 13
FONT_DESCENT 3
COPYRIGHT "Copyright 2018 The Chivo Project Authors (https://github.com/Omnibus-Type/Chivo)"
_OTF_FONTFILE "ChivoMono-Regular.ttf"
_OTF_PSNAME "ChivoMono-Regular"
ENDPROPERTIES
CHARS 642
STARTCHAR 000D
ENCODING 13
SWIDTH 576 0
DWIDTH 8 0
BBX 0 0 0 0
BITMAP
ENDCHAR
STARTCHAR 0020
ENCODING 32
SWIDTH 576 0
DWIDTH 8 0
BBX 0 0 0 0
BITMAP
ENDCHAR
STARTCHAR 0021
ENCODING 33
SWIDTH 576 0
DWIDTH 8 0
BBX 2 10 3 0
BITMAP
C0
C0
C0
C0
40
40
40
00
C0
C0
ENDCHAR
STARTCHAR 0022
ENCODING 34
SWIDTH 576 0
DWIDTH 8 0
BBX 3 4 3 6
BITMAP
A0
A0
A0
A0
ENDCHAR
STARTCHAR 0023
ENCODING 35
SWIDTH 576 0
DWIDTH 8 0
BBX 8 10 0 0
BITMAP
12
12
12
7F
26
24
FF
24
44
48
ENDCHAR
STARTCHAR 0024
ENCODING 36
SWIDTH 576 0
DWIDTH 8 0
BBX 7 12 1 -1
BITMAP
10
10
7C
84
80
F0
3C
06
86
CC
38
10
ENDCHAR
STARTCHAR 0025
ENCODING 37
SWIDTH 576 0
DWIDTH 8 0
BBX 8 10 0 0
BITMAP
41
A1
92
94
E8
03
15
25
45
87
ENDCHAR
STARTCHAR 0026
ENCODING 38
SWIDTH 576 0
DWIDTH 8 0
BBX 7 10 1 0
BITMAP
30
F0
80
84
64
7E
84
84
C4
7C
ENDCHAR
STARTCHAR 0027
ENCODING 39
SWIDTH 576 0
DWIDTH 8 0
BBX 1 4 4 6
BITMAP
80
80
80
80
ENDCHAR
STARTCHAR 0028
ENCODING 40
SWIDTH 576 0
DWIDTH 8 0
BBX 3 12 3 -2
BITMAP
20
40
40
C0
80
80
80
80
80
40
40
20
ENDCHAR
STARTCHAR 0029
ENCODING 41
SWIDTH 576 0
DWIDTH 8 0
BBX 3 12 2 -2
BITMAP
80
40
60
20
20
20
20
20
20
20
40
C0
ENDCHAR
STARTCHAR 002A
ENCODING 42
SWIDTH 576 0
DWIDTH 8 0
BBX 6 6 1 4
BITMAP
10
10
DC
30
38
48
ENDCHAR
STARTCHAR 002B
ENCODING 43
SWIDTH 576 0
DWIDTH 8 0
BBX 7 7 1 0
BITMAP
10
10
10
FE
10
10
10
ENDCHAR
STARTCHAR 002C
ENCODING 44
SWIDTH 576 0
DWIDTH 8 0
BBX 2 4 3 -2
BITMAP
C0
C0
40
C0
ENDCHAR
STARTCHAR 002D
ENCODING 45
SWIDTH 576 0
DWIDTH 8 0
BBX 4 1 2 3
BITMAP
F0
ENDCHAR
STARTCHAR 002E
ENCODING 46
SWIDTH 576 0
DWIDTH 8 0
BBX 2 2 3 0
BITMAP
C0
C0
ENDCHAR
STARTCHAR 002F
ENCODING 47
SWIDTH 576 0
DWIDTH 8 0
BBX 8 12 0 -2
BITMAP
01
03
02
04
04
08
08
10
30
20
40
C0
ENDCHAR
STARTCHAR 0030
ENCODING 48
SWIDTH 576 0
DWIDTH 8 0
BBX 6 10 1 0
BITMAP
30
6C
84
84
84
84
84
84
CC
78
ENDCHAR
STARTCHAR 0031
ENCODING 49
SWIDTH 576 0
DWIDTH 8 0
BBX 7 10 1 0
BITMAP
10
F0
10
10
10
10
10
10
10
FE
ENDCHAR
STARTCHAR 0032
ENCODING 50
SWIDTH 576 0
DWIDTH 8 0
BBX 7 10 1 0
BITMAP
38
7C
84
84
04
1C
30
60
C0
FE
ENDCHAR
STARTCHAR 0033
ENCODING 51
SWIDTH 576 0
DWIDTH 8 0
BBX 6 10 1 0
BITMAP
30
FC
84
04
0C
3C
04
84
84
78
ENDCHAR
STARTCHAR 0034
ENCODING 52
SWIDTH 576 0
DWIDTH 8 0
BBX 7 10 1 0
BITMAP
30
20
24
68
48
88
FE
FE
08
08
ENDCHAR
STARTCHAR 0035
ENCODING 53
SWIDTH 576 0
DWIDTH 8 0
BBX 7 10 1 0
BITMAP
7C
7C
C0
C0
FC
C4
06
84
CC
78
ENDCHAR
STARTCHAR 0036
ENCODING 54
SWIDTH 576 0
DWIDTH 8 0
BBX 7 10 1 0
BITMAP
30
6C
C4
80
B8
C4
86
86
C4
78
ENDCHAR
STARTCHAR 0037
ENCODING 55
SWIDTH 576 0
DWIDTH 8 0
BBX 7 10 1 0
BITMAP
FE
FC
0C
08
10
10
30
20
20
60
ENDCHAR
STARTCHAR 0038
ENCODING 56
SWIDTH 576 0
DWIDTH 8 0
BBX 7 10 1 0
BITMAP
30
4C
84
84
4C
7C
84
86
C4
7C
ENDCHAR
STARTCHAR 0039
ENCODING 57
SWIDTH 576 0
DWIDTH 8 0
BBX 6 10 1 0
BITMAP
30
CC
84
84
84
FC
04
84
CC
78
ENDCHAR
STARTCHAR 003A
ENCODING 58
SWIDTH 576 0
DWIDTH 8 0
BBX 2 7 3 0
BITMAP
C0
C0
00
00
00
C0
C0
ENDCHAR
STARTCHAR 003B
ENCODING 59
SWIDTH 576 0
DWIDTH 8 0
BBX 2 9 3 -2
BITMAP
C0
C0
00
00
00
C0
C0
40
C0
ENDCHAR
STARTCHAR 003C
ENCODING 60
SWIDTH 576 0
DWIDTH 8 0
BBX 8 7 0 0
BITMAP
03
0E
70
C0
70
0E
03
ENDCHAR
STARTCHAR 003D
ENCODING 61
SWIDTH 576 0
DWIDTH 8 0
BBX 7 5 1 1
BITMAP
FE
FE
00
FE
FE
ENDCHAR
STARTCHAR 003E
ENCODING 62
SWIDTH 576 0
DWIDTH 8 0
BBX 7 7 1 0
BITMAP
80
70
1C
02
1C
E0
80
ENDCHAR
STARTCHAR 003F
ENCODING 63
SWIDTH 576 0
DWIDTH 8 0
BBX 6 10 1 0
BITMAP
30
6C
C4
C4
0C
18
10
00
30
30
ENDCHAR
STARTCHAR 0040
ENCODING 64
SWIDTH 576 0
DWIDTH 8 0
BBX 8 12 0 -2
BITMAP
1C
62
41
BD
A5
85
BD
A5
A5
BB
40
3C
ENDCHAR
STARTCHAR 0041
ENCODING 65
SWIDTH 576 0
DWIDTH 8 0
BBX 8 10 0 0
BITMAP
18
18
1C
34
24
26
62
7E
43
C1
ENDCHAR
STARTCHAR 0042
ENCODING 66
SWIDTH 576 0
DWIDTH 8 0
BBX 7 10 1 0
BITMAP
F0
FC
84
84
8C
FC
86
86
84
FC
ENDCHAR
STARTCHAR 0043
ENCODING 67
SWIDTH 576 0
DWIDTH 8 0
BBX 7 10 1 0
BITMAP
38
FC
84
86
80
80
86
86
C4
78
ENDCHAR
STARTCHAR 0044
ENCODING 68
SWIDTH 576 0
DWIDTH 8 0
BBX 7 10 1 0
BITMAP
F0
FC
C6
C2
C2
C2
C2
C6
C6
F8
ENDCHAR
STARTCHAR 0045
ENCODING 69
SWIDTH 576 0
DWIDTH 8 0
BBX 7 10 1 0
BITMAP
FC
FC
C0
C0
C0
FC
C0
C0
C0
FE
ENDCHAR
STARTCHAR 0046
ENCODING 70
SWIDTH 576 0
DWIDTH 8 0
BBX 6 10 1 0
BITMAP
FC
FC
C0
C0
C0
F8
C0
C0
C0
C0
ENDCHAR
STARTCHAR 0047
ENCODING 71
SWIDTH 576 0
DWIDTH 8 0
BBX 7 10 1 0
BITMAP
30
FC
86
86
80
9E
86
86
C6
7A
ENDCHAR
STARTCHAR 0048
ENCODING 72
SWIDTH 576 0
DWIDTH 8 0
BBX 6 10 1 0
BITMAP
84
84
84
84
84
FC
84
84
84
84
ENDCHAR
STARTCHAR 0049
ENCODING 73
SWIDTH 576 0
DWIDTH 8 0
BBX 6 10 1 0
BITMAP
FC
FC
30
30
30
30
30
30
30
FC
ENDCHAR
STARTCHAR 004A
ENCODING 74
SWIDTH 576 0
DWIDTH 8 0
BBX 6 10 1 0
BITMAP
04
04
04
04
04
04
04
C4
CC
78
ENDCHAR
STARTCHAR 004B
ENCODING 75
SWIDTH 576 0
DWIDTH 8 0
BBX 7 10 1 0
BITMAP
86
84
8C
98
B0
B0
D8
8C
8C
86
ENDCHAR
STARTCHAR 004C
ENCODING 76
SWIDTH 576 0
DWIDTH 8 0
BBX 6 10 1 0
BITMAP
C0
C0
C0
C0
C0
C0
C0
C0
C0
FC
ENDCHAR
STARTCHAR 004D
ENCODING 77
SWIDTH 576 0
DWIDTH 8 0
BBX 7 10 1 0
BITMAP
C6
CE
CE
CE
EE
AE
B6
B6
B6
B6
ENDCHAR
STARTCHAR 004E
ENCODING 78
SWIDTH 576 0
DWIDTH 8 0
BBX 6 10 1 0
BITMAP
84
C4
C4
A4
B4
94
9C
8C
8C
84
ENDCHAR
STARTCHAR 004F
ENCODING 79
SWIDTH 576 0
DWIDTH 8 0
BBX 7 10 1 0
BITMAP
38
FC
86
86
86
86
86
86
C4
78
ENDCHAR
STARTCHAR 0050
ENCODING 80
SWIDTH 576 0
DWIDTH 8 0
BBX 7 10 1 0
BITMAP
F8
FC
86
86
86
FC
80
80
80
80
ENDCHAR
STARTCHAR 0051
ENCODING 81
SWIDTH 576 0
DWIDTH 8 0
BBX 7 12 1 -2
BITMAP
38
FC
86
86
86
86
86
86
C4
78
10
1E
ENDCHAR
STARTCHAR 0052
ENCODING 82
SWIDTH 576 0
DWIDTH 8 0
BBX 7 10 1 0
BITMAP
F8
FC
86
86
84
FC
84
86
86
86
ENDCHAR
STARTCHAR 0053
ENCODING 83
SWIDTH 576 0
DWIDTH 8 0
BBX 7 10 1 0
BITMAP
38
EC
86
80
F0
3C
06
86
86
7C
ENDCHAR
STARTCHAR 0054
ENCODING 84
SWIDTH 576 0
DWIDTH 8 0
BBX 8 10 0 0
BITMAP
FF
FF
18
18
18
18
18
18
18
18
ENDCHAR
STARTCHAR 0055
ENCODING 85
SWIDTH 576 0
DWIDTH 8 0
BBX 6 10 1 0
BITMAP
84
84
84
84
84
84
84
84
CC
78
ENDCHAR
STARTCHAR 0056
ENCODING 86
SWIDTH 576 0
DWIDTH 8 0
BBX 8 10 0 0
BITMAP
C1
43
42
62
26
26
34
34
1C
18
ENDCHAR
STARTCHAR 0057
ENCODING 87
SWIDTH 576 0
DWIDTH 8 0
BBX 8 10 0 0
BITMAP
89
99
D9
D9
59
57
56
66
66
66
ENDCHAR
STARTCHAR 0058
ENCODING 88
SWIDTH 576 0
DWIDTH 8 0
BBX 8 10 0 0
BITMAP
C3
62
26
34
18
18
3C
26
62
C3
ENDCHAR
STARTCHAR 0059
ENCODING 89
SWIDTH 576 0
DWIDTH 8 0
BBX 8 10 0 0
BITMAP
C1
43
62
24
3C
18
18
18
18
18
ENDCHAR
STARTCHAR 005A
ENCODING 90
SWIDTH 576 0
DWIDTH 8 0
BBX 7 10 1 0
BITMAP
FE
FC
0C
18
10
30
60
40
C0
FE
ENDCHAR
STARTCHAR 005B
ENCODING 91
SWIDTH 576 0
DWIDTH 8 0
BBX 3 12 3 -2
BITMAP
E0
C0
C0
C0
C0
C0
C0
C0
C0
C0
C0
E0
ENDCHAR
STARTCHAR 005C
ENCODING 92
SWIDTH 576 0
DWIDTH 8 0
BBX 8 12 0 -2
BITMAP
80
40
60
20
10
10
08
08
04
04
02
03
ENDCHAR
STARTCHAR 005D
ENCODING 93
SWIDTH 576 0
DWIDTH 8 0
BBX 3 12 2 -2
BITMAP
E0
20
20
20
20
20
20
20
20
20
20
E0
ENDCHAR
STARTCHAR 005E
ENCODING 94
SWIDTH 576 0
DWIDTH 8 0
BBX 7 7 1 0
BITMAP
30
38
68
48
4C
84
86
ENDCHAR
STARTCHAR 005F
ENCODING 95
SWIDTH 576 0
DWIDTH 8 0
BBX 7 1 1 -2
BITMAP
FE
ENDCHAR
STARTCHAR 0060
ENCODING 96
SWIDTH 576 0
DWIDTH 8 0
BBX 2 3 3 8
BITMAP
80
40
40
ENDCHAR
STARTCHAR 0061
ENCODING 97
SWIDTH 576 0
DWIDTH 8 0
BBX 7 7 1 0
BITMAP
78
CC
0C
7C
8C
8C
F6
ENDCHAR
STARTCHAR 0062
ENCODING 98
SWIDTH 576 0
DWIDTH 8 0
BBX 7 10 1 0
BITMAP
C0
C0
C0
FC
C4
C6
C6
C4
C4
B8
ENDCHAR
STARTCHAR 0063
ENCODING 99
SWIDTH 576 0
DWIDTH 8 0
BBX 6 7 1 0
BITMAP
78
C4
84
80
84
C4
78
ENDCHAR
STARTCHAR 0064
ENCODING 100
SWIDTH 576 0
DWIDTH 8 0
BBX 6 10 1 0
BITMAP
04
04
04
7C
CC
84
84
84
CC
74
ENDCHAR
STARTCHAR 0065
ENCODING 101
SWIDTH 576 0
DWIDTH 8 0
BBX 6 7 1 0
BITMAP
78
C4
84
FC
84
C4
78
ENDCHAR
STARTCHAR 0066
ENCODING 102
SWIDTH 576 0
DWIDTH 8 0
BBX 7 10 1 0
BITMAP
1E
30
30
FC
30
30
30
30
30
FC
ENDCHAR
STARTCHAR 0067
ENCODING 103
SWIDTH 576 0
DWIDTH 8 0
BBX 7 11 1 -3
BITMAP
06
7C
C4
C4
7C
C0
C0
7E
82
86
7C
ENDCHAR
STARTCHAR 0068
ENCODING 104
SWIDTH 576 0
DWIDTH 8 0
BBX 6 10 1 0
BITMAP
C0
C0
C0
FC
C4
C4
C4
C4
C4
C4
ENDCHAR
STARTCHAR 0069
ENCODING 105
SWIDTH 576 0
DWIDTH 8 0
BBX 7 10 1 0
BITMAP
10
00
00
F0
10
10
10
10
10
FE
ENDCHAR
STARTCHAR 006A
ENCODING 106
SWIDTH 576 0
DWIDTH 8 0
BBX 4 13 1 -3
BITMAP
10
00
00
F0
10
10
10
10
10
10
10
B0
60
ENDCHAR
STARTCHAR 006B
ENCODING 107
SWIDTH 576 0
DWIDTH 8 0
BBX 7 10 1 0
BITMAP
80
80
80
8C
98
90
B0
D8
88
8E
ENDCHAR
STARTCHAR 006C
ENCODING 108
SWIDTH 576 0
DWIDTH 8 0
BBX 6 10 1 0
BITMAP
F0
10
10
10
10
10
10
10
10
FC
ENDCHAR
STARTCHAR 006D
ENCODING 109
SWIDTH 576 0
DWIDTH 8 0
BBX 7 7 1 0
BITMAP
EC
96
96
96
96
96
96
ENDCHAR
STARTCHAR 006E
ENCODING 110
SWIDTH 576 0
DWIDTH 8 0
BBX 6 7 1 0
BITMAP
BC
C4
C4
C4
C4
C4
C4
ENDCHAR
STARTCHAR 006F
ENCODING 111
SWIDTH 576 0
DWIDTH 8 0
BBX 6 7 1 0
BITMAP
78
C4
84
84
84
C4
78
ENDCHAR
STARTCHAR 0070
ENCODING 112
SWIDTH 576 0
DWIDTH 8 0
BBX 7 10 1 -3
BITMAP
BC
C4
C6
C6
C4
C4
F8
C0
C0
C0
ENDCHAR
STARTCHAR 0071
ENCODING 113
SWIDTH 576 0
DWIDTH 8 0
BBX 6 10 1 -3
BITMAP
7C
CC
84
84
84
CC
74
04
04
04
ENDCHAR
STARTCHAR 0072
ENCODING 114
SWIDTH 576 0
DWIDTH 8 0
BBX 7 7 1 0
BITMAP
FC
66
62
60
60
60
FC
ENDCHAR
STARTCHAR 0073
ENCODING 115
SWIDTH 576 0
DWIDTH 8 0
BBX 6 7 1 0
BITMAP
7C
C4
C0
7C
04
84
7C
ENDCHAR
STARTCHAR 0074
ENCODING 116
SWIDTH 576 0
DWIDTH 8 0
BBX 6 9 1 0
BITMAP
20
20
FC
20
20
20
20
20
3C
ENDCHAR
STARTCHAR 0075
ENCODING 117
SWIDTH 576 0
DWIDTH 8 0
BBX 7 7 1 0
BITMAP
84
84
84
84
84
CC
76
ENDCHAR
STARTCHAR 0076
ENCODING 118
SWIDTH 576 0
DWIDTH 8 0
BBX 7 7 1 0
BITMAP
86
C4
4C
68
68
30
30
ENDCHAR
STARTCHAR 0077
ENCODING 119
SWIDTH 576 0
DWIDTH 8 0
BBX 8 7 0 0
BITMAP
99
D9
59
57
56
66
66
ENDCHAR
STARTCHAR 0078
ENCODING 120
SWIDTH 576 0
DWIDTH 8 0
BBX 7 7 1 0
BITMAP
C4
68
38
30
78
4C
C6
ENDCHAR
STARTCHAR 0079
ENCODING 121
SWIDTH 576 0
DWIDTH 8 0
BBX 7 10 1 -3
BITMAP
86
C4
4C
68
28
30
30
30
E0
40
ENDCHAR
STARTCHAR 007A
ENCODING 122
SWIDTH 576 0
DWIDTH 8 0
BBX 6 7 1 0
BITMAP
7C
08
10
30
20
60
FC
ENDCHAR
STARTCHAR 007B
ENCODING 123
SWIDTH 576 0
DWIDTH 8 0
BBX 3 12 3 -2
BITMAP
20
40
40
40
40
C0
80
40
40
40
40
60
ENDCHAR
STARTCHAR 007C
ENCODING 124
SWIDTH 576 0
DWIDTH 8 0
BBX 1 13 4 -3
BITMAP
80
80
80
80
80
80
80
80
80
80
80
80
80
ENDCHAR
STARTCHAR 007D
ENCODING 125
SWIDTH 576 0
DWIDTH 8 0
BBX 4 12 2 -2
BITMAP
80
60
20
20
20
20
30
20
20
20
20
C0
ENDCHAR
STARTCHAR 007E
ENCODING 126
SWIDTH 576 0
DWIDTH 8 0
BBX 8 2 0 3
BITMAP
79
8E
ENDCHAR
STARTCHAR 00A0
ENCODING 160
SWIDTH 576 0
DWIDTH 8 0
BBX 0 0 0 0
BITMAP
ENDCHAR
STARTCHAR 00A1
ENCODING 161
SWIDTH 576 0
DWIDTH 8 0
BBX 2 9 3 -2
BITMAP
C0
C0
40
40
40
40
C0
C0
C0
ENDCHAR
STARTCHAR 00A2
ENCODING 162
SWIDTH 576 0
DWIDTH 8 0
BBX 6 10 1 0
BITMAP
10
10
7C
C4
C0
C0
C4
44
38
10
ENDCHAR
STARTCHAR 00A3
ENCODING 163
SWIDTH 576 0
DWIDTH 8 0
BBX 8 10 0 0
BITMAP
0C
36
23
20
20
FC
20
20
20
7E
ENDCHAR
STARTCHAR 00A4
ENCODING 164
SWIDTH 576 0
DWIDTH 8 0
BBX 7 7 1 1
BITMAP
FE
C4
86
82
84
CC
B2
ENDCHAR
STARTCHAR 00A5
ENCODING 165
SWIDTH 576 0
DWIDTH 8 0
BBX 8 10 0 0
BITMAP
C1
43
62
24
7F
18
7F
18
18
18
ENDCHAR
STARTCHAR 00A6
ENCODING 166
SWIDTH 576 0
DWIDTH 8 0
BBX 1 13 4 -3
BITMAP
80
80
80
80
80
00
00
00
80
80
80
80
80
ENDCHAR
STARTCHAR 00A7
ENCODING 167
SWIDTH 576 0
DWIDTH 8 0
BBX 6 13 1 -3
BITMAP
30
4C
C4
40
70
8C
84
64
38
0C
C4
4C
30
ENDCHAR
STARTCHAR 00A8
ENCODING 168
SWIDTH 576 0
DWIDTH 8 0
BBX 4 1 2 9
BITMAP
90
ENDCHAR
STARTCHAR 00A9
ENCODING 169
SWIDTH 576 0
DWIDTH 8 0
BBX 8 10 0 0
BITMAP
3C
42
99
A5
A3
A1
A5
BD
41
3E
ENDCHAR
STARTCHAR 00AA
ENCODING 170
SWIDTH 576 0
DWIDTH 8 0
BBX 4 5 2 5
BITMAP
60
90
70
90
F0
ENDCHAR
STARTCHAR 00AB
ENCODING 171
SWIDTH 576 0
DWIDTH 8 0
BBX 6 5 1 2
BITMAP
2C
48
D8
48
24
ENDCHAR
STARTCHAR 00AC
ENCODING 172
SWIDTH 576 0
DWIDTH 8 0
BBX 7 4 1 2
BITMAP
FE
06
06
06
ENDCHAR
STARTCHAR 00AD
ENCODING 173
SWIDTH 576 0
DWIDTH 8 0
BBX 4 1 2 3
BITMAP
F0
ENDCHAR
STARTCHAR 00AE
ENCODING 174
SWIDTH 576 0
DWIDTH 8 0
BBX 8 10 0 0
BITMAP
3C
42
B9
A5
A5
BD
A5
A7
41
3E
ENDCHAR
STARTCHAR 00AF
ENCODING 175
SWIDTH 576 0
DWIDTH 8 0
BBX 4 1 2 9
BITMAP
F0
ENDCHAR
STARTCHAR 00B0
ENCODING 176
SWIDTH 576 0
DWIDTH 8 0
BBX 4 5 2 5
BITMAP
60
90
90
D0
20
ENDCHAR
STARTCHAR 00B1
ENCODING 177
SWIDTH 576 0
DWIDTH 8 0
BBX 7 7 1 0
BITMAP
10
10
FE
10
10
00
FE
ENDCHAR
STARTCHAR 00B2
ENCODING 178
SWIDTH 576 0
DWIDTH 8 0
BBX 4 5 2 6
BITMAP
70
90
30
40
F0
ENDCHAR
STARTCHAR 00B3
ENCODING 179
SWIDTH 576 0
DWIDTH 8 0
BBX 4 5 2 6
BITMAP
70
90
60
10
F0
ENDCHAR
STARTCHAR 00B4
ENCODING 180
SWIDTH 576 0
DWIDTH 8 0
BBX 2 3 3 8
BITMAP
40
40
80
ENDCHAR
STARTCHAR 00B5
ENCODING 181
SWIDTH 576 0
DWIDTH 8 0
BBX 7 9 1 -2
BITMAP
84
84
84
84
84
CC
F6
80
80
ENDCHAR
STARTCHAR 00B6
ENCODING 182
SWIDTH 576 0
DWIDTH 8 0
BBX 6 12 1 -2
BITMAP
3C
E8
E8
E8
E8
E8
28
28
28
28
28
28
ENDCHAR
STARTCHAR 00B7
ENCODING 183
SWIDTH 576 0
DWIDTH 8 0
BBX 2 2 3 4
BITMAP
C0
C0
ENDCHAR
STARTCHAR 00B8
ENCODING 184
SWIDTH 576 0
DWIDTH 8 0
BBX 3 3 3 -3
BITMAP
40
20
C0
ENDCHAR
STARTCHAR 00B9
ENCODING 185
SWIDTH 576 0
DWIDTH 8 0
BBX 4 5 2 6
BITMAP
E0
20
20
20
F0
ENDCHAR
STARTCHAR 00BA
ENCODING 186
SWIDTH 576 0
DWIDTH 8 0
BBX 4 5 2 5
BITMAP
60
90
90
90
60
ENDCHAR
STARTCHAR 00BB
ENCODING 187
SWIDTH 576 0
DWIDTH 8 0
BBX 5 5 2 2
BITMAP
B0
D0
48
90
A0
ENDCHAR
STARTCHAR 00BC
ENCODING 188
SWIDTH 576 0
DWIDTH 8 0
BBX 8 10 0 0
BITMAP
01
C1
42
44
48
E2
15
25
4F
81
ENDCHAR
STARTCHAR 00BD
ENCODING 189
SWIDTH 576 0
DWIDTH 8 0
BBX 8 10 0 0
BITMAP
01
C2
42
44
48
E7
15
21
46
87
ENDCHAR
STARTCHAR 00BE
ENCODING 190
SWIDTH 576 0
DWIDTH 8 0
BBX 8 10 0 0
BITMAP
E1
11
62
14
F8
02
15
25
4F
81
ENDCHAR
STARTCHAR 00BF
ENCODING 191
SWIDTH 576 0
DWIDTH 8 0
BBX 6 10 1 -3
BITMAP
30
30
30
30
20
C0
C4
C4
7C
30
ENDCHAR
STARTCHAR 00C0
ENCODING 192
SWIDTH 576 0
DWIDTH 8 0
BBX 8 12 0 0
BITMAP
30
08
18
18
1C
34
24
26
62
7E
43
C1
ENDCHAR
STARTCHAR 00C1
ENCODING 193
SWIDTH 576 0
DWIDTH 8 0
BBX 8 12 0 0
BITMAP
0C
08
18
18
1C
34
24
26
62
7E
43
C1
ENDCHAR
STARTCHAR 00C2
ENCODING 194
SWIDTH 576 0
DWIDTH 8 0
BBX 8 12 0 0
BITMAP
1C
20
18
18
1C
34
24
26
62
7E
43
C1
ENDCHAR
STARTCHAR 00C3
ENCODING 195
SWIDTH 576 0
DWIDTH 8 0
BBX 8 12 0 0
BITMAP
3E
00
18
18
1C
34
24
26
62
7E
43
C1
ENDCHAR
STARTCHAR 00C4
ENCODING 196
SWIDTH 576 0
DWIDTH 8 0
BBX 8 12 0 0
BITMAP
24
00
18
18
1C
34
24
26
62
7E
43
C1
ENDCHAR
STARTCHAR 00C5
ENCODING 197
SWIDTH 576 0
DWIDTH 8 0
BBX 8 13 0 0
BITMAP
18
14
18
18
18
1C
34
24
26
62
7E
43
C1
ENDCHAR
STARTCHAR 00C6
ENCODING 198
SWIDTH 576 0
DWIDTH 8 0
BBX 8 10 0 0
BITMAP
1F
1F
38
28
28
6E
68
78
C8
CF
ENDCHAR
STARTCHAR 00C7
ENCODING 199
SWIDTH 576 0
DWIDTH 8 0
BBX 7 13 1 -3
BITMAP
38
FC
84
86
80
80
86
86
C4
78
10
08
30
ENDCHAR
STARTCHAR 00C8
ENCODING 200
SWIDTH 576 0
DWIDTH 8 0
BBX 7 12 1 0
BITMAP
60
10
FC
FC
C0
C0
C0
FC
C0
C0
C0
FE
ENDCHAR
STARTCHAR 00C9
ENCODING 201
SWIDTH 576 0
DWIDTH 8 0
BBX 7 12 1 0
BITMAP
0C
10
FC
FC
C0
C0
C0
FC
C0
C0
C0
FE
ENDCHAR
STARTCHAR 00CA
ENCODING 202
SWIDTH 576 0
DWIDTH 8 0
BBX 7 12 1 0
BITMAP
38
44
FC
FC
C0
C0
C0
FC
C0
C0
C0
FE
ENDCHAR
STARTCHAR 00CB
ENCODING 203
SWIDTH 576 0
DWIDTH 8 0
BBX 7 12 1 0
BITMAP
6C
00
FC
FC
C0
C0
C0
FC
C0
C0
C0
FE
ENDCHAR
STARTCHAR 00CC
ENCODING 204
SWIDTH 576 0
DWIDTH 8 0
BBX 6 12 1 0
BITMAP
60
10
FC
FC
30
30
30
30
30
30
30
FC
ENDCHAR
STARTCHAR 00CD
ENCODING 205
SWIDTH 576 0
DWIDTH 8 0
BBX 6 12 1 0
BITMAP
18
10
FC
FC
30
30
30
30
30
30
30
FC
ENDCHAR
STARTCHAR 00CE
ENCODING 206
SWIDTH 576 0
DWIDTH 8 0
BBX 6 12 1 0
BITMAP
38
40
FC
FC
30
30
30
30
30
30
30
FC
ENDCHAR
STARTCHAR 00CF
ENCODING 207
SWIDTH 576 0
DWIDTH 8 0
BBX 6 12 1 0
BITMAP
48
00
FC
FC
30
30
30
30
30
30
30
FC
ENDCHAR
STARTCHAR 00D0
ENCODING 208
SWIDTH 576 0
DWIDTH 8 0
BBX 8 10 0 0
BITMAP
78
7E
63
61
61
F9
61
63
63
7C
ENDCHAR
STARTCHAR 00D1
ENCODING 209
SWIDTH 576 0
DWIDTH 8 0
BBX 6 12 1 0
BITMAP
7C
00
84
C4
C4
A4
B4
94
9C
8C
8C
84
ENDCHAR
STARTCHAR 00D2
ENCODING 210
SWIDTH 576 0
DWIDTH 8 0
BBX 7 12 1 0
BITMAP
60
10
38
FC
86
86
86
86
86
86
C4
78
ENDCHAR
STARTCHAR 00D3
ENCODING 211
SWIDTH 576 0
DWIDTH 8 0
BBX 7 12 1 0
BITMAP
18
10
38
FC
86
86
86
86
86
86
C4
78
ENDCHAR
STARTCHAR 00D4
ENCODING 212
SWIDTH 576 0
DWIDTH 8 0
BBX 7 12 1 0
BITMAP
38
40
38
FC
86
86
86
86
86
86
C4
78
ENDCHAR
STARTCHAR 00D5
ENCODING 213
SWIDTH 576 0
DWIDTH 8 0
BBX 7 12 1 0
BITMAP
7C
00
38
FC
86
86
86
86
86
86
C4
78
ENDCHAR
STARTCHAR 00D6
ENCODING 214
SWIDTH 576 0
DWIDTH 8 0
BBX 7 12 1 0
BITMAP
48
00
38
FC
86
86
86
86
86
86
C4
78
ENDCHAR
STARTCHAR 00D7
ENCODING 215
SWIDTH 576 0
DWIDTH 8 0
BBX 6 5 1 1
BITMAP
CC
78
30
78
CC
ENDCHAR
STARTCHAR 00D8
ENCODING 216
SWIDTH 576 0
DWIDTH 8 0
BBX 8 11 0 -1
BITMAP
1F
7E
47
47
4B
53
53
63
62
7C
C0
ENDCHAR
STARTCHAR 00D9
ENCODING 217
SWIDTH 576 0
DWIDTH 8 0
BBX 6 12 1 0
BITMAP
60
10
84
84
84
84
84
84
84
84
CC
78
ENDCHAR
STARTCHAR 00DA
ENCODING 218
SWIDTH 576 0
DWIDTH 8 0
BBX 6 12 1 0
BITMAP
18
10
84
84
84
84
84
84
84
84
CC
78
ENDCHAR
STARTCHAR 00DB
ENCODING 219
SWIDTH 576 0
DWIDTH 8 0
BBX 6 12 1 0
BITMAP
38
40
84
84
84
84
84
84
84
84
CC
78
ENDCHAR
STARTCHAR 00DC
ENCODING 220
SWIDTH 576 0
DWIDTH 8 0
BBX 6 12 1 0
BITMAP
48
00
84
84
84
84
84
84
84
84
CC
78
ENDCHAR
STARTCHAR 00DD
ENCODING 221
SWIDTH 576 0
DWIDTH 8 0
BBX 8 12 0 0
BITMAP
0C
08
C1
43
62
24
3C
18
18
18
18
18
ENDCHAR
STARTCHAR 00DE
ENCODING 222
SWIDTH 576 0
DWIDTH 8 0
BBX 7 10 1 0
BITMAP
C0
C0
F8
C6
C6
C6
CC
F8
C0
C0
ENDCHAR
STARTCHAR 00DF
ENCODING 223
SWIDTH 576 0
DWIDTH 8 0
BBX 8 11 0 -1
BITMAP
3C
62
62
E2
7C
62
63
63
62
7C
60
ENDCHAR
STARTCHAR 00E0
ENCODING 224
SWIDTH 576 0
DWIDTH 8 0
BBX 7 11 1 0
BITMAP
60
20
10
00
78
CC
0C
7C
8C
8C
F6
ENDCHAR
STARTCHAR 00E1
ENCODING 225
SWIDTH 576 0
DWIDTH 8 0
BBX 7 11 1 0
BITMAP
18
10
20
00
78
CC
0C
7C
8C
8C
F6
ENDCHAR
STARTCHAR 00E2
ENCODING 226
SWIDTH 576 0
DWIDTH 8 0
BBX 7 11 1 0
BITMAP
30
30
48
00
78
CC
0C
7C
8C
8C
F6
ENDCHAR
STARTCHAR 00E3
ENCODING 227
SWIDTH 576 0
DWIDTH 8 0
BBX 7 10 1 0
BITMAP
7C
98
00
78
CC
0C
7C
8C
8C
F6
ENDCHAR
STARTCHAR 00E4
ENCODING 228
SWIDTH 576 0
DWIDTH 8 0
BBX 7 10 1 0
BITMAP
48
00
00
78
CC
0C
7C
8C
8C
F6
ENDCHAR
STARTCHAR 00E5
ENCODING 229
SWIDTH 576 0
DWIDTH 8 0
BBX 7 11 1 0
BITMAP
30
48
30
00
78
CC
0C
7C
8C
8C
F6
ENDCHAR
STARTCHAR 00E6
ENCODING 230
SWIDTH 576 0
DWIDTH 8 0
BBX 8 7 0 0
BITMAP
77
D9
09
7F
89
99
7F
ENDCHAR
STARTCHAR 00E7
ENCODING 231
SWIDTH 576 0
DWIDTH 8 0
BBX 6 10 1 -3
BITMAP
78
C4
84
80
84
C4
78
10
08
30
ENDCHAR
STARTCHAR 00E8
ENCODING 232
SWIDTH 576 0
DWIDTH 8 0
BBX 6 11 1 0
BITMAP
20
20
10
00
78
C4
84
FC
84
C4
78
ENDCHAR
STARTCHAR 00E9
ENCODING 233
SWIDTH 576 0
DWIDTH 8 0
BBX 6 11 1 0
BITMAP
08
10
30
00
78
C4
84
FC
84
C4
78
ENDCHAR
STARTCHAR 00EA
ENCODING 234
SWIDTH 576 0
DWIDTH 8 0
BBX 6 11 1 0
BITMAP
10
38
4C
00
78
C4
84
FC
84
C4
78
ENDCHAR
STARTCHAR 00EB
ENCODING 235
SWIDTH 576 0
DWIDTH 8 0
BBX 6 10 1 0
BITMAP
48
00
00
78
C4
84
FC
84
C4
78
ENDCHAR
STARTCHAR 00EC
ENCODING 236
SWIDTH 576 0
DWIDTH 8 0
BBX 7 11 1 0
BITMAP
20
30
10
00
F0
10
10
10
10
10
FE
ENDCHAR
STARTCHAR 00ED
ENCODING 237
SWIDTH 576 0
DWIDTH 8 0
BBX 7 11 1 0
BITMAP
08
18
10
00
F0
10
10
10
10
10
FE
ENDCHAR
STARTCHAR 00EE
ENCODING 238
SWIDTH 576 0
DWIDTH 8 0
BBX 7 11 1 0
BITMAP
10
28
6C
00
F0
10
10
10
10
10
FE
ENDCHAR
STARTCHAR 00EF
ENCODING 239
SWIDTH 576 0
DWIDTH 8 0
BBX 7 10 1 0
BITMAP
6C
00
00
F0
10
10
10
10
10
FE
ENDCHAR
STARTCHAR 00F0
ENCODING 240
SWIDTH 576 0
DWIDTH 8 0
BBX 6 10 1 0
BITMAP
78
70
18
7C
C4
84
84
84
C4
78
ENDCHAR
STARTCHAR 00F1
ENCODING 241
SWIDTH 576 0
DWIDTH 8 0
BBX 6 10 1 0
BITMAP
74
48
00
BC
C4
C4
C4
C4
C4
C4
ENDCHAR
STARTCHAR 00F2
ENCODING 242
SWIDTH 576 0
DWIDTH 8 0
BBX 6 11 1 0
BITMAP
60
20
10
00
78
C4
84
84
84
C4
78
ENDCHAR
STARTCHAR 00F3
ENCODING 243
SWIDTH 576 0
DWIDTH 8 0
BBX 6 11 1 0
BITMAP
18
10
30
00
78
C4
84
84
84
C4
78
ENDCHAR
STARTCHAR 00F4
ENCODING 244
SWIDTH 576 0
DWIDTH 8 0
BBX 6 11 1 0
BITMAP
10
38
4C
00
78
C4
84
84
84
C4
78
ENDCHAR
STARTCHAR 00F5
ENCODING 245
SWIDTH 576 0
DWIDTH 8 0
BBX 6 10 1 0
BITMAP
74
48
00
78
C4
84
84
84
C4
78
ENDCHAR
STARTCHAR 00F6
ENCODING 246
SWIDTH 576 0
DWIDTH 8 0
BBX 6 10 1 0
BITMAP
48
00
00
78
C4
84
84
84
C4
78
ENDCHAR
STARTCHAR 00F7
ENCODING 247
SWIDTH 576 0
DWIDTH 8 0
BBX 7 5 1 1
BITMAP
10
00
FE
00
10
ENDCHAR
STARTCHAR 00F8
ENCODING 248
SWIDTH 576 0
DWIDTH 8 0
BBX 6 9 1 -1
BITMAP
04
78
CC
94
94
A4
C4
78
80
ENDCHAR
STARTCHAR 00F9
ENCODING 249
SWIDTH 576 0
DWIDTH 8 0
BBX 7 11 1 0
BITMAP
60
20
10
00
84
84
84
84
84
CC
76
ENDCHAR
STARTCHAR 00FA
ENCODING 250
SWIDTH 576 0
DWIDTH 8 0
BBX 7 11 1 0
BITMAP
18
10
20
00
84
84
84
84
84
CC
76
ENDCHAR
STARTCHAR 00FB
ENCODING 251
SWIDTH 576 0
DWIDTH 8 0
BBX 7 11 1 0
BITMAP
30
30
48
00
84
84
84
84
84
CC
76
ENDCHAR
STARTCHAR 00FC
ENCODING 252
SWIDTH 576 0
DWIDTH 8 0
BBX 7 10 1 0
BITMAP
48
00
00
84
84
84
84
84
CC
76
ENDCHAR
STARTCHAR 00FD
ENCODING 253
SWIDTH 576 0
DWIDTH 8 0
BBX 7 14 1 -3
BITMAP
08
10
10
00
86
C4
4C
68
28
30
30
30
E0
40
ENDCHAR
STARTCHAR 00FE
ENCODING 254
SWIDTH 576 0
DWIDTH 8 0
BBX 7 13 1 -3
BITMAP
C0
C0
C0
FC
C4
C4
C6
C4
C4
F8
C0
C0
C0
ENDCHAR
STARTCHAR 00FF
ENCODING 255
SWIDTH 576 0
DWIDTH 8 0
BBX 7 13 1 -3
BITMAP
48
00
00
86
C4
4C
68
28
30
30
30
E0
40
ENDCHAR
STARTCHAR 0100
ENCODING 256
SWIDTH 576 0
DWIDTH 8 0
BBX 8 12 0 0
BITMAP
3C
00
18
18
1C
34
24
26
62
7E
43
C1
ENDCHAR
STARTCHAR 0101
ENCODING 257
SWIDTH 576 0
DWIDTH 8 0
BBX 7 9 1 0
BITMAP
78
00
78
CC
0C
7C
8C
8C
F6
ENDCHAR
STARTCHAR 0102
ENCODING 258
SWIDTH 576 0
DWIDTH 8 0
BBX 8 12 0 0
BITMAP
34
08
18
18
1C
34
24
26
62
7E
43
C1
ENDCHAR
STARTCHAR 0103
ENCODING 259
SWIDTH 576 0
DWIDTH 8 0
BBX 7 10 1 0
BITMAP
48
30
00
78
CC
0C
7C
8C
8C
F6
ENDCHAR
STARTCHAR 0104
ENCODING 260
SWIDTH 576 0
DWIDTH 8 0
BBX 9 12 0 -2
BITMAP
1800
1800
1C00
3400
2400
2600
6200
7E00
4300
C100
0200
0380
ENDCHAR
STARTCHAR 0105
ENCODING 261
SWIDTH 576 0
DWIDTH 8 0
BBX 8 9 1 -2
BITMAP
78
CC
0C
7C
8C
8C
F6
04
07
ENDCHAR
STARTCHAR 0106
ENCODING 262
SWIDTH 576 0
DWIDTH 8 0
BBX 7 12 1 0
BITMAP
18
10
38
FC
84
86
80
80
86
86
C4
78
ENDCHAR
STARTCHAR 0107
ENCODING 263
SWIDTH 576 0
DWIDTH 8 0
BBX 6 11 1 0
BITMAP
18
10
30
00
78
C4
84
80
84
C4
78
ENDCHAR
STARTCHAR 0108
ENCODING 264
SWIDTH 576 0
DWIDTH 8 0
BBX 7 12 1 0
BITMAP
38
40
38
FC
84
86
80
80
86
86
C4
78
ENDCHAR
STARTCHAR 0109
ENCODING 265
SWIDTH 576 0
DWIDTH 8 0
BBX 6 11 1 0
BITMAP
10
38
4C
00
78
C4
84
80
84
C4
78
ENDCHAR
STARTCHAR 010A
ENCODING 266
SWIDTH 576 0
DWIDTH 8 0
BBX 7 12 1 0
BITMAP
30
00
38
FC
84
86
80
80
86
86
C4
78
ENDCHAR
STARTCHAR 010B
ENCODING 267
SWIDTH 576 0
DWIDTH 8 0
BBX 6 10 1 0
BITMAP
30
00
00
78
C4
84
80
84
C4
78
ENDCHAR
STARTCHAR 010C
ENCODING 268
SWIDTH 576 0
DWIDTH 8 0
BBX 7 12 1 0
BITMAP
7C
00
38
FC
84
86
80
80
86
86
C4
78
ENDCHAR
STARTCHAR 010D
ENCODING 269
SWIDTH 576 0
DWIDTH 8 0
BBX 6 11 1 0
BITMAP
48
28
30
00
78
C4
84
80
84
C4
78
ENDCHAR
STARTCHAR 010E
ENCODING 270
SWIDTH 576 0
DWIDTH 8 0
BBX 7 12 1 0
BITMAP
7C
00
F0
FC
C6
C2
C2
C2
C2
C6
C6
F8
ENDCHAR
STARTCHAR 010F
ENCODING 271
SWIDTH 576 0
DWIDTH 8 0
BBX 8 10 1 0
BITMAP
05
05
05
7D
CC
84
84
84
CC
74
ENDCHAR
STARTCHAR 0110
ENCODING 272
SWIDTH 576 0
DWIDTH 8 0
BBX 8 10 0 0
BITMAP
78
7E
63
61
61
F9
61
63
63
7C
ENDCHAR
STARTCHAR 0111
ENCODING 273
SWIDTH 576 0
DWIDTH 8 0
BBX 7 10 1 0
BITMAP
04
3E
04
7C
CC
84
84
84
CC
74
ENDCHAR
STARTCHAR 0112
ENCODING 274
SWIDTH 576 0
DWIDTH 8 0
BBX 7 12 1 0
BITMAP
7C
00
FC
FC
C0
C0
C0
FC
C0
C0
C0
FE
ENDCHAR
STARTCHAR 0113
ENCODING 275
SWIDTH 576 0
DWIDTH 8 0
BBX 6 9 1 0
BITMAP
78
00
78
C4
84
FC
84
C4
78
ENDCHAR
STARTCHAR 0114
ENCODING 276
SWIDTH 576 0
DWIDTH 8 0
BBX 7 12 1 0
BITMAP
6C
10
FC
FC
C0
C0
C0
FC
C0
C0
C0
FE
ENDCHAR
STARTCHAR 0115
ENCODING 277
SWIDTH 576 0
DWIDTH 8 0
BBX 6 10 1 0
BITMAP
4C
30
00
78
C4
84
FC
84
C4
78
ENDCHAR
STARTCHAR 0116
ENCODING 278
SWIDTH 576 0
DWIDTH 8 0
BBX 7 12 1 0
BITMAP
10
00
FC
FC
C0
C0
C0
FC
C0
C0
C0
FE
ENDCHAR
STARTCHAR 0117
ENCODING 279
SWIDTH 576 0
DWIDTH 8 0
BBX 6 10 1 0
BITMAP
10
00
00
78
C4
84
FC
84
C4
78
ENDCHAR
STARTCHAR 0118
ENCODING 280
SWIDTH 576 0
DWIDTH 8 0
BBX 7 12 1 -2
BITMAP
FC
FC
C0
C0
C0
FC
C0
C0
C0
FE
08
0E
ENDCHAR
STARTCHAR 0119
ENCODING 281
SWIDTH 576 0
DWIDTH 8 0
BBX 6 9 1 -2
BITMAP
78
C4
84
FC
84
C4
78
10
18
ENDCHAR
STARTCHAR 011A
ENCODING 282
SWIDTH 576 0
DWIDTH 8 0
BBX 7 12 1 0
BITMAP
6C
10
FC
FC
C0
C0
C0
FC
C0
C0
C0
FE
ENDCHAR
STARTCHAR 011B
ENCODING 283
SWIDTH 576 0
DWIDTH 8 0
BBX 6 11 1 0
BITMAP
4C
28
30
00
78
C4
84
FC
84
C4
78
ENDCHAR
STARTCHAR 011C
ENCODING 284
SWIDTH 576 0
DWIDTH 8 0
BBX 7 12 1 0
BITMAP
38
44
30
FC
86
86
80
9E
86
86
C6
7A
ENDCHAR
STARTCHAR 011D
ENCODING 285
SWIDTH 576 0
DWIDTH 8 0
BBX 7 13 1 -3
BITMAP
38
44
02
7C
C4
C4
7C
C0
C0
7E
82
86
7C
ENDCHAR
STARTCHAR 011E
ENCODING 286
SWIDTH 576 0
DWIDTH 8 0
BBX 7 12 1 0
BITMAP
68
10
30
FC
86
86
80
9E
86
86
C6
7A
ENDCHAR
STARTCHAR 011F
ENCODING 287
SWIDTH 576 0
DWIDTH 8 0
BBX 7 13 1 -3
BITMAP
48
30
06
7C
C4
C4
7C
C0
C0
7E
82
86
7C
ENDCHAR
STARTCHAR 0120
ENCODING 288
SWIDTH 576 0
DWIDTH 8 0
BBX 7 12 1 0
BITMAP
30
00
30
FC
86
86
80
9E
86
86
C6
7A
ENDCHAR
STARTCHAR 0121
ENCODING 289
SWIDTH 576 0
DWIDTH 8 0
BBX 7 13 1 -3
BITMAP
30
00
06
7C
C4
C4
7C
C0
C0
7E
82
86
7C
ENDCHAR
STARTCHAR 0122
ENCODING 290
SWIDTH 576 0
DWIDTH 8 0
BBX 7 14 1 -4
BITMAP
30
FC
86
86
80
9E
86
86
C6
7A
00
30
30
30
ENDCHAR
STARTCHAR 0123
ENCODING 291
SWIDTH 576 0
DWIDTH 8 0
BBX 7 15 1 -3
BITMAP
10
20
30
30
06
7C
C4
C4
7C
C0
C0
7E
82
86
7C
ENDCHAR
STARTCHAR 0124
ENCODING 292
SWIDTH 576 0
DWIDTH 8 0
BBX 6 12 1 0
BITMAP
38
40
84
84
84
84
84
FC
84
84
84
84
ENDCHAR
STARTCHAR 0125
ENCODING 293
SWIDTH 576 0
DWIDTH 8 0
BBX 7 12 0 0
BITMAP
E0
10
60
60
60
7E
62
62
62
62
62
62
ENDCHAR
STARTCHAR 0126
ENCODING 294
SWIDTH 576 0
DWIDTH 8 0
BBX 8 10 0 0
BITMAP
42
42
FF
42
42
7E
42
42
42
42
ENDCHAR
STARTCHAR 0127
ENCODING 295
SWIDTH 576 0
DWIDTH 8 0
BBX 7 10 0 0
BITMAP
60
F8
60
7E
62
62
62
62
62
62
ENDCHAR
STARTCHAR 0128
ENCODING 296
SWIDTH 576 0
DWIDTH 8 0
BBX 6 12 1 0
BITMAP
7C
00
FC
FC
30
30
30
30
30
30
30
FC
ENDCHAR
STARTCHAR 0129
ENCODING 297
SWIDTH 576 0
DWIDTH 8 0
BBX 7 10 1 0
BITMAP
74
48
00
F0
10
10
10
10
10
FE
ENDCHAR
STARTCHAR 012A
ENCODING 298
SWIDTH 576 0
DWIDTH 8 0
BBX 6 12 1 0
BITMAP
78
00
FC
FC
30
30
30
30
30
30
30
FC
ENDCHAR
STARTCHAR 012B
ENCODING 299
SWIDTH 576 0
DWIDTH 8 0
BBX 7 9 1 0
BITMAP
7C
00
F0
10
10
10
10
10
FE
ENDCHAR
STARTCHAR 012C
ENCODING 300
SWIDTH 576 0
DWIDTH 8 0
BBX 6 12 1 0
BITMAP
68
10
FC
FC
30
30
30
30
30
30
30
FC
ENDCHAR
STARTCHAR 012D
ENCODING 301
SWIDTH 576 0
DWIDTH 8 0
BBX 7 10 1 0
BITMAP
44
38
00
F0
10
10
10
10
10
FE
ENDCHAR
STARTCHAR 012E
ENCODING 302
SWIDTH 576 0
DWIDTH 8 0
BBX 6 12 1 -2
BITMAP
FC
FC
30
30
30
30
30
30
30
FC
10
1C
ENDCHAR
STARTCHAR 012F
ENCODING 303
SWIDTH 576 0
DWIDTH 8 0
BBX 7 12 1 -2
BITMAP
10
00
00
F0
10
10
10
10
10
FE
10
18
ENDCHAR
STARTCHAR 0130
ENCODING 304
SWIDTH 576 0
DWIDTH 8 0
BBX 6 12 1 0
BITMAP
30
00
FC
FC
30
30
30
30
30
30
30
FC
ENDCHAR
STARTCHAR 0131
ENCODING 305
SWIDTH 576 0
DWIDTH 8 0
BBX 7 7 1 0
BITMAP
F0
10
10
10
10
10
FE
ENDCHAR
STARTCHAR 0132
ENCODING 306
SWIDTH 576 0
DWIDTH 8 0
BBX 6 10 1 0
BITMAP
84
84
84
84
84
84
04
84
C4
78
ENDCHAR
STARTCHAR 0133
ENCODING 307
SWIDTH 576 0
DWIDTH 8 0
BBX 6 13 1 -3
BITMAP
CC
CC
00
DC
C4
C4
C4
C4
C4
C4
04
2C
10
ENDCHAR
STARTCHAR 0134
ENCODING 308
SWIDTH 576 0
DWIDTH 8 0
BBX 8 12 1 0
BITMAP
0E
11
04
04
04
04
04
04
04
C4
CC
78
ENDCHAR
STARTCHAR 0135
ENCODING 309
SWIDTH 576 0
DWIDTH 8 0
BBX 6 14 1 -3
BITMAP
10
28
6C
00
F0
10
10
10
10
10
10
10
B0
60
ENDCHAR
STARTCHAR 0136
ENCODING 310
SWIDTH 576 0
DWIDTH 8 0
BBX 7 14 1 -4
BITMAP
86
84
8C
98
B0
B0
D8
8C
8C
86
00
30
30
30
ENDCHAR
STARTCHAR 0137
ENCODING 311
SWIDTH 576 0
DWIDTH 8 0
BBX 7 14 1 -4
BITMAP
80
80
80
8C
98
90
B0
D8
88
8E
00
30
30
30
ENDCHAR
STARTCHAR 0138
ENCODING 312
SWIDTH 576 0
DWIDTH 8 0
BBX 7 7 1 0
BITMAP
8C
98
90
B0
D8
88
8E
ENDCHAR
STARTCHAR 0139
ENCODING 313
SWIDTH 576 0
DWIDTH 8 0
BBX 6 12 1 0
BITMAP
60
40
C0
C0
C0
C0
C0
C0
C0
C0
C0
FC
ENDCHAR
STARTCHAR 013A
ENCODING 314
SWIDTH 576 0
DWIDTH 8 0
BBX 6 12 1 0
BITMAP
18
10
F0
10
10
10
10
10
10
10
10
FC
ENDCHAR
STARTCHAR 013B
ENCODING 315
SWIDTH 576 0
DWIDTH 8 0
BBX 6 14 1 -4
BITMAP
C0
C0
C0
C0
C0
C0
C0
C0
C0
FC
00
10
10
10
ENDCHAR
STARTCHAR 013C
ENCODING 316
SWIDTH 576 0
DWIDTH 8 0
BBX 6 14 1 -4
BITMAP
F0
10
10
10
10
10
10
10
10
FC
00
30
30
30
ENDCHAR
STARTCHAR 013D
ENCODING 317
SWIDTH 576 0
DWIDTH 8 0
BBX 6 10 1 0
BITMAP
C4
C4
C4
C8
C0
C0
C0
C0
C0
FC
ENDCHAR
STARTCHAR 013E
ENCODING 318
SWIDTH 576 0
DWIDTH 8 0
BBX 6 10 1 0
BITMAP
F4
14
14
14
10
10
10
10
10
FC
ENDCHAR
STARTCHAR 013F
ENCODING 319
SWIDTH 576 0
DWIDTH 8 0
BBX 6 10 1 0
BITMAP
C0
C0
C0
C0
CC
CC
C0
C0
C0
FC
ENDCHAR
STARTCHAR 0140
ENCODING 320
SWIDTH 576 0
DWIDTH 8 0
BBX 8 10 1 0
BITMAP
F0
10
10
10
13
13
10
10
10
FC
ENDCHAR
STARTCHAR 0141
ENCODING 321
SWIDTH 576 0
DWIDTH 8 0
BBX 7 10 0 0
BITMAP
60
60
60
60
68
70
E0
60
60
7E
ENDCHAR
STARTCHAR 0142
ENCODING 322
SWIDTH 576 0
DWIDTH 8 0
BBX 6 10 1 0
BITMAP
F0
10
10
14
18
70
90
10
10
FC
ENDCHAR
STARTCHAR 0143
ENCODING 323
SWIDTH 576 0
DWIDTH 8 0
BBX 6 12 1 0
BITMAP
18
10
84
C4
C4
A4
B4
94
9C
8C
8C
84
ENDCHAR
STARTCHAR 0144
ENCODING 324
SWIDTH 576 0
DWIDTH 8 0
BBX 6 11 1 0
BITMAP
08
10
30
00
BC
C4
C4
C4
C4
C4
C4
ENDCHAR
STARTCHAR 0145
ENCODING 325
SWIDTH 576 0
DWIDTH 8 0
BBX 6 14 1 -4
BITMAP
84
C4
C4
A4
B4
94
9C
8C
8C
84
00
30
30
30
ENDCHAR
STARTCHAR 0146
ENCODING 326
SWIDTH 576 0
DWIDTH 8 0
BBX 6 11 1 -4
BITMAP
BC
C4
C4
C4
C4
C4
C4
00
10
10
30
ENDCHAR
STARTCHAR 0147
ENCODING 327
SWIDTH 576 0
DWIDTH 8 0
BBX 6 12 1 0
BITMAP
7C
00
84
C4
C4
A4
B4
94
9C
8C
8C
84
ENDCHAR
STARTCHAR 0148
ENCODING 328
SWIDTH 576 0
DWIDTH 8 0
BBX 6 11 1 0
BITMAP
4C
28
30
00
BC
C4
C4
C4
C4
C4
C4
ENDCHAR
STARTCHAR 0149
ENCODING 329
SWIDTH 576 0
DWIDTH 8 0
BBX 7 11 0 0
BITMAP
C0
C0
40
80
5E
62
62
62
62
62
62
ENDCHAR
STARTCHAR 014A
ENCODING 330
SWIDTH 576 0
DWIDTH 8 0
BBX 6 13 1 -3
BITMAP
84
C4
C4
A4
B4
94
9C
8C
8C
84
04
14
08
ENDCHAR
STARTCHAR 014B
ENCODING 331
SWIDTH 576 0
DWIDTH 8 0
BBX 6 10 1 -3
BITMAP
BC
C4
C4
C4
C4
C4
C4
04
1C
08
ENDCHAR
STARTCHAR 014C
ENCODING 332
SWIDTH 576 0
DWIDTH 8 0
BBX 7 12 1 0
BITMAP
78
00
38
FC
86
86
86
86
86
86
C4
78
ENDCHAR
STARTCHAR 014D
ENCODING 333
SWIDTH 576 0
DWIDTH 8 0
BBX 6 9 1 0
BITMAP
78
00
78
C4
84
84
84
C4
78
ENDCHAR
STARTCHAR 014E
ENCODING 334
SWIDTH 576 0
DWIDTH 8 0
BBX 7 12 1 0
BITMAP
68
10
38
FC
86
86
86
86
86
86
C4
78
ENDCHAR
STARTCHAR 014F
ENCODING 335
SWIDTH 576 0
DWIDTH 8 0
BBX 6 10 1 0
BITMAP
48
30
00
78
C4
84
84
84
C4
78
ENDCHAR
STARTCHAR 0150
ENCODING 336
SWIDTH 576 0
DWIDTH 8 0
BBX 7 12 1 0
BITMAP
3C
58
38
FC
86
86
86
86
86
86
C4
78
ENDCHAR
STARTCHAR 0151
ENCODING 337
SWIDTH 576 0
DWIDTH 8 0
BBX 6 10 1 0
BITMAP
3C
68
00
78
C4
84
84
84
C4
78
ENDCHAR
STARTCHAR 0152
ENCODING 338
SWIDTH 576 0
DWIDTH 8 0
BBX 7 10 1 0
BITMAP
3E
FE
98
98
98
9E
98
98
98
7E
ENDCHAR
STARTCHAR 0153
ENCODING 339
SWIDTH 576 0
DWIDTH 8 0
BBX 8 7 0 0
BITMAP
7E
99
89
8F
89
D9
77
ENDCHAR
STARTCHAR 0154
ENCODING 340
SWIDTH 576 0
DWIDTH 8 0
BBX 7 12 1 0
BITMAP
18
10
F8
FC
86
86
84
FC
84
86
86
86
ENDCHAR
STARTCHAR 0155
ENCODING 341
SWIDTH 576 0
DWIDTH 8 0
BBX 7 11 1 0
BITMAP
08
10
10
00
FC
66
62
60
60
60
FC
ENDCHAR
STARTCHAR 0156
ENCODING 342
SWIDTH 576 0
DWIDTH 8 0
BBX 7 14 1 -4
BITMAP
F8
FC
86
86
84
FC
84
86
86
86
00
10
10
10
ENDCHAR
STARTCHAR 0157
ENCODING 343
SWIDTH 576 0
DWIDTH 8 0
BBX 7 11 1 -4
BITMAP
FC
66
62
60
60
60
FC
00
30
30
20
ENDCHAR
STARTCHAR 0158
ENCODING 344
SWIDTH 576 0
DWIDTH 8 0
BBX 7 12 1 0
BITMAP
6C
10
F8
FC
86
86
84
FC
84
86
86
86
ENDCHAR
STARTCHAR 0159
ENCODING 345
SWIDTH 576 0
DWIDTH 8 0
BBX 7 11 1 0
BITMAP
44
28
10
00
FC
66
62
60
60
60
FC
ENDCHAR
STARTCHAR 015A
ENCODING 346
SWIDTH 576 0
DWIDTH 8 0
BBX 7 12 1 0
BITMAP
18
10
38
EC
86
80
F0
3C
06
86
86
7C
ENDCHAR
STARTCHAR 015B
ENCODING 347
SWIDTH 576 0
DWIDTH 8 0
BBX 6 11 1 0
BITMAP
18
10
30
00
7C
C4
C0
7C
04
84
7C
ENDCHAR
STARTCHAR 015C
ENCODING 348
SWIDTH 576 0
DWIDTH 8 0
BBX 7 12 1 0
BITMAP
38
40
38
EC
86
80
F0
3C
06
86
86
7C
ENDCHAR
STARTCHAR 015D
ENCODING 349
SWIDTH 576 0
DWIDTH 8 0
BBX 6 11 1 0
BITMAP
10
38
4C
00
7C
C4
C0
7C
04
84
7C
ENDCHAR
STARTCHAR 015E
ENCODING 350
SWIDTH 576 0
DWIDTH 8 0
BBX 7 13 1 -3
BITMAP
38
EC
86
80
F0
3C
06
86
86
7C
10
08
30
ENDCHAR
STARTCHAR 015F
ENCODING 351
SWIDTH 576 0
DWIDTH 8 0
BBX 6 10 1 -3
BITMAP
7C
C4
C0
7C
04
84
7C
10
08
30
ENDCHAR
STARTCHAR 0160
ENCODING 352
SWIDTH 576 0
DWIDTH 8 0
BBX 7 12 1 0
BITMAP
7C
00
38
EC
86
80
F0
3C
06
86
86
7C
ENDCHAR
STARTCHAR 0161
ENCODING 353
SWIDTH 576 0
DWIDTH 8 0
BBX 6 11 1 0
BITMAP
48
28
30
00
7C
C4
C0
7C
04
84
7C
ENDCHAR
STARTCHAR 0162
ENCODING 354
SWIDTH 576 0
DWIDTH 8 0
BBX 8 13 0 -3
BITMAP
FF
FF
18
18
18
18
18
18
18
18
08
04
18
ENDCHAR
STARTCHAR 0163
ENCODING 355
SWIDTH 576 0
DWIDTH 8 0
BBX 6 12 1 -3
BITMAP
20
20
FC
20
20
20
20
20
3C
08
08
38
ENDCHAR
STARTCHAR 0164
ENCODING 356
SWIDTH 576 0
DWIDTH 8 0
BBX 8 12 0 0
BITMAP
3E
00
FF
FF
18
18
18
18
18
18
18
18
ENDCHAR
STARTCHAR 0165
ENCODING 357
SWIDTH 576 0
DWIDTH 8 0
BBX 6 11 1 0
BITMAP
0C
0C
24
28
FC
20
20
20
20
20
3C
ENDCHAR
STARTCHAR 0166
ENCODING 358
SWIDTH 576 0
DWIDTH 8 0
BBX 8 10 0 0
BITMAP
FF
FF
18
18
18
3E
18
18
18
18
ENDCHAR
STARTCHAR 0167
ENCODING 359
SWIDTH 576 0
DWIDTH 8 0
BBX 6 9 1 0
BITMAP
20
20
FC
20
20
FC
20
20
3C
ENDCHAR
STARTCHAR 0168
ENCODING 360
SWIDTH 576 0
DWIDTH 8 0
BBX 6 12 1 0
BITMAP
7C
00
84
84
84
84
84
84
84
84
CC
78
ENDCHAR
STARTCHAR 0169
ENCODING 361
SWIDTH 576 0
DWIDTH 8 0
BBX 7 10 1 0
BITMAP
7C
98
00
84
84
84
84
84
CC
76
ENDCHAR
STARTCHAR 016A
ENCODING 362
SWIDTH 576 0
DWIDTH 8 0
BBX 6 12 1 0
BITMAP
78
00
84
84
84
84
84
84
84
84
CC
78
ENDCHAR
STARTCHAR 016B
ENCODING 363
SWIDTH 576 0
DWIDTH 8 0
BBX 7 9 1 0
BITMAP
78
00
84
84
84
84
84
CC
76
ENDCHAR
STARTCHAR 016C
ENCODING 364
SWIDTH 576 0
DWIDTH 8 0
BBX 6 12 1 0
BITMAP
68
10
84
84
84
84
84
84
84
84
CC
78
ENDCHAR
STARTCHAR 016D
ENCODING 365
SWIDTH 576 0
DWIDTH 8 0
BBX 7 10 1 0
BITMAP
48
30
00
84
84
84
84
84
CC
76
ENDCHAR
STARTCHAR 016E
ENCODING 366
SWIDTH 576 0
DWIDTH 8 0
BBX 6 13 1 0
BITMAP
30
28
30
84
84
84
84
84
84
84
84
CC
78
ENDCHAR
STARTCHAR 016F
ENCODING 367
SWIDTH 576 0
DWIDTH 8 0
BBX 7 11 1 0
BITMAP
30
48
30
00
84
84
84
84
84
CC
76
ENDCHAR
STARTCHAR 0170
ENCODING 368
SWIDTH 576 0
DWIDTH 8 0
BBX 6 12 1 0
BITMAP
3C
58
84
84
84
84
84
84
84
84
CC
78
ENDCHAR
STARTCHAR 0171
ENCODING 369
SWIDTH 576 0
DWIDTH 8 0
BBX 7 10 1 0
BITMAP
3C
58
00
84
84
84
84
84
CC
76
ENDCHAR
STARTCHAR 0172
ENCODING 370
SWIDTH 576 0
DWIDTH 8 0
BBX 6 12 1 -2
BITMAP
84
84
84
84
84
84
84
84
CC
78
10
18
ENDCHAR
STARTCHAR 0173
ENCODING 371
SWIDTH 576 0
DWIDTH 8 0
BBX 8 9 1 -2
BITMAP
84
84
84
84
84
CC
76
04
07
ENDCHAR
STARTCHAR 0174
ENCODING 372
SWIDTH 576 0
DWIDTH 8 0
BBX 8 12 0 0
BITMAP
1C
20
89
99
D9
D9
59
57
56
66
66
66
ENDCHAR
STARTCHAR 0175
ENCODING 373
SWIDTH 576 0
DWIDTH 8 0
BBX 8 11 0 0
BITMAP
08
1C
26
00
99
D9
59
57
56
66
66
ENDCHAR
STARTCHAR 0176
ENCODING 374
SWIDTH 576 0
DWIDTH 8 0
BBX 8 12 0 0
BITMAP
1C
20
C1
43
62
24
3C
18
18
18
18
18
ENDCHAR
STARTCHAR 0177
ENCODING 375
SWIDTH 576 0
DWIDTH 8 0
BBX 7 14 1 -3
BITMAP
10
38
4C
00
86
C4
4C
68
28
30
30
30
E0
40
ENDCHAR
STARTCHAR 0178
ENCODING 376
SWIDTH 576 0
DWIDTH 8 0
BBX 8 12 0 0
BITMAP
24
00
C1
43
62
24
3C
18
18
18
18
18
ENDCHAR
STARTCHAR 0179
ENCODING 377
SWIDTH 576 0
DWIDTH 8 0
BBX 7 12 1 0
BITMAP
18
10
FE
FC
0C
18
10
30
60
40
C0
FE
ENDCHAR
STARTCHAR 017A
ENCODING 378
SWIDTH 576 0
DWIDTH 8 0
BBX 6 11 1 0
BITMAP
18
10
30
00
7C
08
10
30
20
60
FC
ENDCHAR
STARTCHAR 017B
ENCODING 379
SWIDTH 576 0
DWIDTH 8 0
BBX 7 12 1 0
BITMAP
30
00
FE
FC
0C
18
10
30
60
40
C0
FE
ENDCHAR
STARTCHAR 017C
ENCODING 380
SWIDTH 576 0
DWIDTH 8 0
BBX 6 10 1 0
BITMAP
30
00
00
7C
08
10
30
20
60
FC
ENDCHAR
STARTCHAR 017D
ENCODING 381
SWIDTH 576 0
DWIDTH 8 0
BBX 7 12 1 0
BITMAP
7C
00
FE
FC
0C
18
10
30
60
40
C0
FE
ENDCHAR
STARTCHAR 017E
ENCODING 382
SWIDTH 576 0
DWIDTH 8 0
BBX 6 11 1 0
BITMAP
48
28
30
00
7C
08
10
30
20
60
FC
ENDCHAR
STARTCHAR 017F
ENCODING 383
SWIDTH 576 0
DWIDTH 8 0
BBX 7 10 1 0
BITMAP
1E
30
30
F0
30
30
30
30
30
FC
ENDCHAR
STARTCHAR 018F
ENCODING 399
SWIDTH 576 0
DWIDTH 8 0
BBX 7 10 1 0
BITMAP
38
FC
86
86
06
FE
86
86
C4
78
ENDCHAR
STARTCHAR 0191
ENCODING 401
SWIDTH 576 0
DWIDTH 8 0
BBX 7 13 0 -3
BITMAP
7E
7E
60
60
60
7C
60
60
60
60
60
E0
80
ENDCHAR
STARTCHAR 0192
ENCODING 402
SWIDTH 576 0
DWIDTH 8 0
BBX 6 13 1 -3
BITMAP
1C
10
10
3C
30
30
20
20
20
20
20
E0
80
ENDCHAR
STARTCHAR 0197
ENCODING 407
SWIDTH 576 0
DWIDTH 8 0
BBX 6 10 1 0
BITMAP
FC
FC
30
30
30
7C
30
30
30
FC
ENDCHAR
STARTCHAR 019D
ENCODING 413
SWIDTH 576 0
DWIDTH 8 0
BBX 8 13 -1 -3
BITMAP
21
31
31
29
2D
25
27
23
23
21
20
A0
40
ENDCHAR
STARTCHAR 01A0
ENCODING 416
SWIDTH 576 0
DWIDTH 8 0
BBX 7 12 1 0
BITMAP
02
02
3E
FC
86
86
86
86
86
86
C4
78
ENDCHAR
STARTCHAR 01A1
ENCODING 417
SWIDTH 576 0
DWIDTH 8 0
BBX 7 8 1 0
BITMAP
02
7A
C4
84
84
84
C4
78
ENDCHAR
STARTCHAR 01AF
ENCODING 431
SWIDTH 576 0
DWIDTH 8 0
BBX 8 12 1 0
BITMAP
03
03
86
84
84
84
84
84
84
84
CC
78
ENDCHAR
STARTCHAR 01B0
ENCODING 432
SWIDTH 576 0
DWIDTH 8 0
BBX 8 9 1 0
BITMAP
03
02
84
84
84
84
84
CC
76
ENDCHAR
STARTCHAR 01C4
ENCODING 452
SWIDTH 576 0
DWIDTH 8 0
BBX 8 12 0 0
BITMAP
07
00
E7
F7
D2
DA
DA
DE
DC
DC
D4
FF
ENDCHAR
STARTCHAR 01C5
ENCODING 453
SWIDTH 576 0
DWIDTH 8 0
BBX 8 10 0 0
BITMAP
E5
F6
D0
DF
DB
DA
DA
DC
D4
F7
ENDCHAR
STARTCHAR 01C6
ENCODING 454
SWIDTH 576 0
DWIDTH 8 0
BBX 8 10 0 0
BITMAP
15
12
10
77
91
92
92
96
94
77
ENDCHAR
STARTCHAR 01C7
ENCODING 455
SWIDTH 576 0
DWIDTH 8 0
BBX 6 13 1 -3
BITMAP
84
84
84
84
84
84
84
84
84
F4
44
6C
18
ENDCHAR
STARTCHAR 01C8
ENCODING 456
SWIDTH 576 0
DWIDTH 8 0
BBX 6 13 1 -3
BITMAP
CC
CC
C0
C4
C4
C4
C4
C4
C4
FC
04
2C
18
ENDCHAR
STARTCHAR 01C9
ENCODING 457
SWIDTH 576 0
DWIDTH 8 0
BBX 6 13 1 -3
BITMAP
CC
CC
C0
DC
C4
C4
C4
C4
C4
C4
04
2C
10
ENDCHAR
STARTCHAR 01CA
ENCODING 458
SWIDTH 576 0
DWIDTH 8 0
BBX 6 13 1 -3
BITMAP
94
94
D4
D4
D4
B4
B4
B4
94
94
44
6C
18
ENDCHAR
STARTCHAR 01CB
ENCODING 459
SWIDTH 576 0
DWIDTH 8 0
BBX 7 13 1 -3
BITMAP
96
D6
D0
D4
D4
B4
B4
B4
94
94
04
1C
08
ENDCHAR
STARTCHAR 01CC
ENCODING 460
SWIDTH 576 0
DWIDTH 8 0
BBX 7 13 1 -3
BITMAP
06
06
00
E6
96
96
96
96
96
96
06
14
08
ENDCHAR
STARTCHAR 01CD
ENCODING 461
SWIDTH 576 0
DWIDTH 8 0
BBX 8 12 0 0
BITMAP
3E
00
18
18
1C
34
24
26
62
7E
43
C1
ENDCHAR
STARTCHAR 01CE
ENCODING 462
SWIDTH 576 0
DWIDTH 8 0
BBX 7 11 1 0
BITMAP
48
78
30
00
78
CC
0C
7C
8C
8C
F6
ENDCHAR
STARTCHAR 01CF
ENCODING 463
SWIDTH 576 0
DWIDTH 8 0
BBX 6 12 1 0
BITMAP
7C
00
FC
FC
30
30
30
30
30
30
30
FC
ENDCHAR
STARTCHAR 01D0
ENCODING 464
SWIDTH 576 0
DWIDTH 8 0
BBX 7 11 1 0
BITMAP
44
28
10
00
F0
10
10
10
10
10
FE
ENDCHAR
STARTCHAR 01D1
ENCODING 465
SWIDTH 576 0
DWIDTH 8 0
BBX 7 12 1 0
BITMAP
7C
00
38
FC
86
86
86
86
86
86
C4
78
ENDCHAR
STARTCHAR 01D2
ENCODING 466
SWIDTH 576 0
DWIDTH 8 0
BBX 6 11 1 0
BITMAP
48
28
30
00
78
C4
84
84
84
C4
78
ENDCHAR
STARTCHAR 01D3
ENCODING 467
SWIDTH 576 0
DWIDTH 8 0
BBX 6 12 1 0
BITMAP
7C
00
84
84
84
84
84
84
84
84
CC
78
ENDCHAR
STARTCHAR 01D4
ENCODING 468
SWIDTH 576 0
DWIDTH 8 0
BBX 7 11 1 0
BITMAP
48
78
30
00
84
84
84
84
84
CC
76
ENDCHAR
STARTCHAR 01D5
ENCODING 469
SWIDTH 576 0
DWIDTH 8 0
BBX 6 14 1 0
BITMAP
78
00
68
00
84
84
84
84
84
84
84
84
CC
78
ENDCHAR
STARTCHAR 01D6
ENCODING 470
SWIDTH 576 0
DWIDTH 8 0
BBX 7 12 1 0
BITMAP
78
00
68
68
00
84
84
84
84
84
CC
76
ENDCHAR
STARTCHAR 01D7
ENCODING 471
SWIDTH 576 0
DWIDTH 8 0
BBX 6 15 1 0
BITMAP
08
10
00
4C
00
84
84
84
84
84
84
84
84
CC
78
ENDCHAR
STARTCHAR 01D8
ENCODING 472
SWIDTH 576 0
DWIDTH 8 0
BBX 7 13 1 0
BITMAP
08
10
00
4C
4C
00
84
84
84
84
84
CC
76
ENDCHAR
STARTCHAR 01D9
ENCODING 473
SWIDTH 576 0
DWIDTH 8 0
BBX 6 14 1 0
BITMAP
7C
00
4C
00
84
84
84
84
84
84
84
84
CC
78
ENDCHAR
STARTCHAR 01DA
ENCODING 474
SWIDTH 576 0
DWIDTH 8 0
BBX 7 12 1 0
BITMAP
7C
00
4C
4C
00
84
84
84
84
84
CC
76
ENDCHAR
STARTCHAR 01DB
ENCODING 475
SWIDTH 576 0
DWIDTH 8 0
BBX 6 15 1 0
BITMAP
40
30
00
4C
00
84
84
84
84
84
84
84
84
CC
78
ENDCHAR
STARTCHAR 01DC
ENCODING 476
SWIDTH 576 0
DWIDTH 8 0
BBX 7 13 1 0
BITMAP
60
20
10
4C
4C
00
84
84
84
84
84
CC
76
ENDCHAR
STARTCHAR 01E4
ENCODING 484
SWIDTH 576 0
DWIDTH 8 0
BBX 7 10 1 0
BITMAP
30
FC
86
86
80
9E
86
9E
C6
7A
ENDCHAR
STARTCHAR 01E5
ENCODING 485
SWIDTH 576 0
DWIDTH 8 0
BBX 9 11 0 -3
BITMAP
0300
3E00
6200
6200
3E00
6000
6000
3F00
FF80
4300
3E00
ENDCHAR
STARTCHAR 01E6
ENCODING 486
SWIDTH 576 0
DWIDTH 8 0
BBX 7 12 1 0
BITMAP
6C
10
30
FC
86
86
80
9E
86
86
C6
7A
ENDCHAR
STARTCHAR 01E7
ENCODING 487
SWIDTH 576 0
DWIDTH 8 0
BBX 7 14 1 -3
BITMAP
48
28
30
06
7C
C4
C4
7C
C0
C0
7E
82
86
7C
ENDCHAR
STARTCHAR 01EA
ENCODING 490
SWIDTH 576 0
DWIDTH 8 0
BBX 7 12 1 -2
BITMAP
38
FC
86
86
86
86
86
86
C4
78
10
18
ENDCHAR
STARTCHAR 01EB
ENCODING 491
SWIDTH 576 0
DWIDTH 8 0
BBX 6 9 1 -2
BITMAP
78
C4
84
84
84
C4
78
10
38
ENDCHAR
STARTCHAR 01FA
ENCODING 506
SWIDTH 576 0
DWIDTH 8 0
BBX 8 15 0 0
BITMAP
0C
00
18
14
18
18
18
1C
34
24
26
62
7E
43
C1
ENDCHAR
STARTCHAR 01FB
ENCODING 507
SWIDTH 576 0
DWIDTH 8 0
BBX 7 13 1 0
BITMAP
18
00
30
48
30
00
78
CC
0C
7C
8C
8C
F6
ENDCHAR
STARTCHAR 01FC
ENCODING 508
SWIDTH 576 0
DWIDTH 8 0
BBX 8 12 0 0
BITMAP
06
08
1F
1F
38
28
28
6E
68
78
C8
CF
ENDCHAR
STARTCHAR 01FD
ENCODING 509
SWIDTH 576 0
DWIDTH 8 0
BBX 8 11 0 0
BITMAP
0C
08
18
00
77
D9
09
7F
89
99
7F
ENDCHAR
STARTCHAR 01FE
ENCODING 510
SWIDTH 576 0
DWIDTH 8 0
BBX 8 13 0 -1
BITMAP
0C
09
1E
7E
47
47
4B
53
53
63
62
7C
C0
ENDCHAR
STARTCHAR 01FF
ENCODING 511
SWIDTH 576 0
DWIDTH 8 0
BBX 6 12 1 -1
BITMAP
18
10
30
04
78
CC
94
94
A4
C4
78
80
ENDCHAR
STARTCHAR 0200
ENCODING 512
SWIDTH 576 0
DWIDTH 8 0
BBX 8 12 0 0
BITMAP
78
14
18
18
1C
34
24
26
62
7E
43
C1
ENDCHAR
STARTCHAR 0201
ENCODING 513
SWIDTH 576 0
DWIDTH 8 0
BBX 7 10 1 0
BITMAP
F0
68
00
78
CC
0C
7C
8C
8C
F6
ENDCHAR
STARTCHAR 0202
ENCODING 514
SWIDTH 576 0
DWIDTH 8 0
BBX 8 12 0 0
BITMAP
3E
22
18
18
1C
34
24
26
62
7E
43
C1
ENDCHAR
STARTCHAR 0203
ENCODING 515
SWIDTH 576 0
DWIDTH 8 0
BBX 7 10 1 0
BITMAP
78
84
00
78
CC
0C
7C
8C
8C
F6
ENDCHAR
STARTCHAR 0204
ENCODING 516
SWIDTH 576 0
DWIDTH 8 0
BBX 7 12 1 0
BITMAP
F0
28
FC
FC
C0
C0
C0
FC
C0
C0
C0
FE
ENDCHAR
STARTCHAR 0205
ENCODING 517
SWIDTH 576 0
DWIDTH 8 0
BBX 6 10 1 0
BITMAP
F0
28
00
78
C4
84
FC
84
C4
78
ENDCHAR
STARTCHAR 0206
ENCODING 518
SWIDTH 576 0
DWIDTH 8 0
BBX 7 12 1 0
BITMAP
7C
44
FC
FC
C0
C0
C0
FC
C0
C0
C0
FE
ENDCHAR
STARTCHAR 0207
ENCODING 519
SWIDTH 576 0
DWIDTH 8 0
BBX 6 10 1 0
BITMAP
78
44
00
78
C4
84
FC
84
C4
78
ENDCHAR
STARTCHAR 0208
ENCODING 520
SWIDTH 576 0
DWIDTH 8 0
BBX 6 12 1 0
BITMAP
F0
28
FC
FC
30
30
30
30
30
30
30
FC
ENDCHAR
STARTCHAR 0209
ENCODING 521
SWIDTH 576 0
DWIDTH 8 0
BBX 7 10 1 0
BITMAP
D0
28
00
F0
10
10
10
10
10
FE
ENDCHAR
STARTCHAR 020A
ENCODING 522
SWIDTH 576 0
DWIDTH 8 0
BBX 6 12 1 0
BITMAP
7C
44
FC
FC
30
30
30
30
30
30
30
FC
ENDCHAR
STARTCHAR 020B
ENCODING 523
SWIDTH 576 0
DWIDTH 8 0
BBX 7 10 1 0
BITMAP
7C
44
00
F0
10
10
10
10
10
FE
ENDCHAR
STARTCHAR 020C
ENCODING 524
SWIDTH 576 0
DWIDTH 8 0
BBX 7 12 1 0
BITMAP
F0
28
38
FC
86
86
86
86
86
86
C4
78
ENDCHAR
STARTCHAR 020D
ENCODING 525
SWIDTH 576 0
DWIDTH 8 0
BBX 6 10 1 0
BITMAP
F0
68
00
78
C4
84
84
84
C4
78
ENDCHAR
STARTCHAR 020E
ENCODING 526
SWIDTH 576 0
DWIDTH 8 0
BBX 7 12 1 0
BITMAP
7C
44
38
FC
86
86
86
86
86
86
C4
78
ENDCHAR
STARTCHAR 020F
ENCODING 527
SWIDTH 576 0
DWIDTH 8 0
BBX 6 10 1 0
BITMAP
78
44
00
78
C4
84
84
84
C4
78
ENDCHAR
STARTCHAR 0210
ENCODING 528
SWIDTH 576 0
DWIDTH 8 0
BBX 7 12 1 0
BITMAP
F0
28
F8
FC
86
86
84
FC
84
86
86
86
ENDCHAR
STARTCHAR 0211
ENCODING 529
SWIDTH 576 0
DWIDTH 8 0
BBX 7 10 1 0
BITMAP
F0
28
00
FC
66
62
60
60
60
FC
ENDCHAR
STARTCHAR 0212
ENCODING 530
SWIDTH 576 0
DWIDTH 8 0
BBX 7 12 1 0
BITMAP
7C
44
F8
FC
86
86
84
FC
84
86
86
86
ENDCHAR
STARTCHAR 0213
ENCODING 531
SWIDTH 576 0
DWIDTH 8 0
BBX 7 10 1 0
BITMAP
7C
44
00
FC
66
62
60
60
60
FC
ENDCHAR
STARTCHAR 0214
ENCODING 532
SWIDTH 576 0
DWIDTH 8 0
BBX 6 12 1 0
BITMAP
F0
28
84
84
84
84
84
84
84
84
CC
78
ENDCHAR
STARTCHAR 0215
ENCODING 533
SWIDTH 576 0
DWIDTH 8 0
BBX 7 10 1 0
BITMAP
F0
68
00
84
84
84
84
84
CC
76
ENDCHAR
STARTCHAR 0216
ENCODING 534
SWIDTH 576 0
DWIDTH 8 0
BBX 6 12 1 0
BITMAP
7C
44
84
84
84
84
84
84
84
84
CC
78
ENDCHAR
STARTCHAR 0217
ENCODING 535
SWIDTH 576 0
DWIDTH 8 0
BBX 7 10 1 0
BITMAP
78
84
00
84
84
84
84
84
CC
76
ENDCHAR
STARTCHAR 0218
ENCODING 536
SWIDTH 576 0
DWIDTH 8 0
BBX 7 14 1 -4
BITMAP
38
EC
86
80
F0
3C
06
86
86
7C
00
30
30
30
ENDCHAR
STARTCHAR 0219
ENCODING 537
SWIDTH 576 0
DWIDTH 8 0
BBX 6 11 1 -4
BITMAP
7C
C4
C0
7C
04
84
7C
00
30
30
30
ENDCHAR
STARTCHAR 021A
ENCODING 538
SWIDTH 576 0
DWIDTH 8 0
BBX 8 14 0 -4
BITMAP
FF
FF
18
18
18
18
18
18
18
18
00
18
18
18
ENDCHAR
STARTCHAR 021B
ENCODING 539
SWIDTH 576 0
DWIDTH 8 0
BBX 6 13 1 -4
BITMAP
20
20
FC
20
20
20
20
20
3C
00
18
18
18
ENDCHAR
STARTCHAR 022A
ENCODING 554
SWIDTH 576 0
DWIDTH 8 0
BBX 7 14 1 0
BITMAP
78
00
68
00
38
FC
86
86
86
86
86
86
C4
78
ENDCHAR
STARTCHAR 022B
ENCODING 555
SWIDTH 576 0
DWIDTH 8 0
BBX 6 12 1 0
BITMAP
78
00
68
68
00
78
C4
84
84
84
C4
78
ENDCHAR
STARTCHAR 022C
ENCODING 556
SWIDTH 576 0
DWIDTH 8 0
BBX 7 14 1 0
BITMAP
7C
00
7C
80
38
FC
86
86
86
86
86
86
C4
78
ENDCHAR
STARTCHAR 022D
ENCODING 557
SWIDTH 576 0
DWIDTH 8 0
BBX 6 12 1 0
BITMAP
78
00
74
88
00
78
C4
84
84
84
C4
78
ENDCHAR
STARTCHAR 0230
ENCODING 560
SWIDTH 576 0
DWIDTH 8 0
BBX 7 14 1 0
BITMAP
78
00
30
00
38
FC
86
86
86
86
86
86
C4
78
ENDCHAR
STARTCHAR 0231
ENCODING 561
SWIDTH 576 0
DWIDTH 8 0
BBX 6 11 1 0
BITMAP
78
30
00
00
78
C4
84
84
84
C4
78
ENDCHAR
STARTCHAR 0232
ENCODING 562
SWIDTH 576 0
DWIDTH 8 0
BBX 8 12 0 0
BITMAP
3C
00
C1
43
62
24
3C
18
18
18
18
18
ENDCHAR
STARTCHAR 0233
ENCODING 563
SWIDTH 576 0
DWIDTH 8 0
BBX 7 12 1 -3
BITMAP
78
00
86
C4
4C
68
28
30
30
30
E0
40
ENDCHAR
STARTCHAR 0237
ENCODING 567
SWIDTH 576 0
DWIDTH 8 0
BBX 4 10 1 -3
BITMAP
F0
10
10
10
10
10
10
10
B0
60
ENDCHAR
STARTCHAR 0244
ENCODING 580
SWIDTH 576 0
DWIDTH 8 0
BBX 8 10 0 0
BITMAP
42
42
42
42
FF
42
42
42
66
3C
ENDCHAR
STARTCHAR 0259
ENCODING 601
SWIDTH 576 0
DWIDTH 8 0
BBX 6 7 1 0
BITMAP
78
C4
84
FC
84
C4
78
ENDCHAR
STARTCHAR 0268
ENCODING 616
SWIDTH 576 0
DWIDTH 8 0
BBX 7 10 1 0
BITMAP
10
00
00
F0
10
10
7C
10
10
FE
ENDCHAR
STARTCHAR 026A
ENCODING 618
SWIDTH 576 0
DWIDTH 8 0
BBX 4 7 2 0
BITMAP
F0
60
60
60
60
60
F0
ENDCHAR
STARTCHAR 0272
ENCODING 626
SWIDTH 576 0
DWIDTH 8 0
BBX 7 10 0 -3
BITMAP
5E
62
62
62
62
62
62
60
C0
80
ENDCHAR
STARTCHAR 0289
ENCODING 649
SWIDTH 576 0
DWIDTH 8 0
BBX 8 7 0 0
BITMAP
42
42
FF
FF
42
66
3B
ENDCHAR
STARTCHAR 02B9
ENCODING 697
SWIDTH 576 0
DWIDTH 8 0
BBX 2 2 3 8
BITMAP
40
80
ENDCHAR
STARTCHAR 02BA
ENCODING 698
SWIDTH 576 0
DWIDTH 8 0
BBX 4 2 2 8
BITMAP
50
B0
ENDCHAR
STARTCHAR 02BC
ENCODING 700
SWIDTH 576 0
DWIDTH 8 0
BBX 2 3 3 8
BITMAP
40
40
C0
ENDCHAR
STARTCHAR 02C6
ENCODING 710
SWIDTH 576 0
DWIDTH 8 0
BBX 5 3 2 8
BITMAP
20
70
98
ENDCHAR
STARTCHAR 02C7
ENCODING 711
SWIDTH 576 0
DWIDTH 8 0
BBX 4 3 2 8
BITMAP
90
50
60
ENDCHAR
STARTCHAR 02C9
ENCODING 713
SWIDTH 576 0
DWIDTH 8 0
BBX 4 1 2 9
BITMAP
F0
ENDCHAR
STARTCHAR 02CD
ENCODING 717
SWIDTH 576 0
DWIDTH 8 0
BBX 4 1 2 -2
BITMAP
F0
ENDCHAR
STARTCHAR 02D8
ENCODING 728
SWIDTH 576 0
DWIDTH 8 0
BBX 4 2 2 8
BITMAP
90
60
ENDCHAR
STARTCHAR 02D9
ENCODING 729
SWIDTH 576 0
DWIDTH 8 0
BBX 1 1 4 9
BITMAP
80
ENDCHAR
STARTCHAR 02DA
ENCODING 730
SWIDTH 576 0
DWIDTH 8 0
BBX 3 3 3 8
BITMAP
C0
A0
C0
ENDCHAR
STARTCHAR 02DB
ENCODING 731
SWIDTH 576 0
DWIDTH 8 0
BBX 3 2 3 -2
BITMAP
80
E0
ENDCHAR
STARTCHAR 02DC
ENCODING 732
SWIDTH 576 0
DWIDTH 8 0
BBX 5 2 2 8
BITMAP
E8
90
ENDCHAR
STARTCHAR 02DD
ENCODING 733
SWIDTH 576 0
DWIDTH 8 0
BBX 5 2 2 8
BITMAP
D8
A0
ENDCHAR
STARTCHAR 0300
ENCODING 768
SWIDTH 0 0
DWIDTH 0 0
BBX 2 3 3 8
BITMAP
80
40
40
ENDCHAR
STARTCHAR 0301
ENCODING 769
SWIDTH 0 0
DWIDTH 0 0
BBX 2 3 3 8
BITMAP
40
40
80
ENDCHAR
STARTCHAR 0302
ENCODING 770
SWIDTH 0 0
DWIDTH 0 0
BBX 5 3 2 8
BITMAP
20
70
98
ENDCHAR
STARTCHAR 0303
ENCODING 771
SWIDTH 0 0
DWIDTH 0 0
BBX 5 2 2 8
BITMAP
E8
90
ENDCHAR
STARTCHAR 0304
ENCODING 772
SWIDTH 0 0
DWIDTH 0 0
BBX 4 1 2 9
BITMAP
F0
ENDCHAR
STARTCHAR 0306
ENCODING 774
SWIDTH 0 0
DWIDTH 0 0
BBX 4 2 2 8
BITMAP
90
60
ENDCHAR
STARTCHAR 0307
ENCODING 775
SWIDTH 0 0
DWIDTH 0 0
BBX 1 1 4 9
BITMAP
80
ENDCHAR
STARTCHAR 0308
ENCODING 776
SWIDTH 0 0
DWIDTH 0 0
BBX 4 1 2 9
BITMAP
90
ENDCHAR
STARTCHAR 0309
ENCODING 777
SWIDTH 0 0
DWIDTH 0 0
BBX 2 3 3 8
BITMAP
C0
40
40
ENDCHAR
STARTCHAR 030A
ENCODING 778
SWIDTH 0 0
DWIDTH 0 0
BBX 3 3 3 8
BITMAP
C0
A0
C0
ENDCHAR
STARTCHAR 030B
ENCODING 779
SWIDTH 0 0
DWIDTH 0 0
BBX 5 2 2 8
BITMAP
D8
A0
ENDCHAR
STARTCHAR 030C
ENCODING 780
SWIDTH 0 0
DWIDTH 0 0
BBX 4 3 2 8
BITMAP
90
50
60
ENDCHAR
STARTCHAR 030F
ENCODING 783
SWIDTH 0 0
DWIDTH 0 0
BBX 5 2 2 8
BITMAP
F0
58
ENDCHAR
STARTCHAR 0311
ENCODING 785
SWIDTH 0 0
DWIDTH 0 0
BBX 5 2 2 8
BITMAP
F0
88
ENDCHAR
STARTCHAR 0312
ENCODING 786
SWIDTH 0 0
DWIDTH 0 0
BBX 2 4 3 8
BITMAP
40
80
C0
C0
ENDCHAR
STARTCHAR 0313
ENCODING 787
SWIDTH 0 0
DWIDTH 0 0
BBX 2 4 3 8
BITMAP
C0
C0
40
80
ENDCHAR
STARTCHAR 031B
ENCODING 795
SWIDTH 0 0
DWIDTH 0 0
BBX 2 3 3 6
BITMAP
40
40
80
ENDCHAR
STARTCHAR 0323
ENCODING 803
SWIDTH 0 0
DWIDTH 0 0
BBX 2 1 3 -2
BITMAP
C0
ENDCHAR
STARTCHAR 0324
ENCODING 804
SWIDTH 0 0
DWIDTH 0 0
BBX 4 1 2 -2
BITMAP
90
ENDCHAR
STARTCHAR 0326
ENCODING 806
SWIDTH 0 0
DWIDTH 0 0
BBX 2 3 3 -4
BITMAP
C0
C0
C0
ENDCHAR
STARTCHAR 0327
ENCODING 807
SWIDTH 0 0
DWIDTH 0 0
BBX 3 3 3 -3
BITMAP
40
20
C0
ENDCHAR
STARTCHAR 0328
ENCODING 808
SWIDTH 0 0
DWIDTH 0 0
BBX 3 2 3 -2
BITMAP
80
E0
ENDCHAR
STARTCHAR 032E
ENCODING 814
SWIDTH 0 0
DWIDTH 0 0
BBX 5 2 2 -3
BITMAP
88
F0
ENDCHAR
STARTCHAR 0330
ENCODING 816
SWIDTH 0 0
DWIDTH 0 0
BBX 5 2 2 -3
BITMAP
E8
90
ENDCHAR
STARTCHAR 0331
ENCODING 817
SWIDTH 0 0
DWIDTH 0 0
BBX 4 1 2 -2
BITMAP
F0
ENDCHAR
STARTCHAR 0335
ENCODING 821
SWIDTH 0 0
DWIDTH 0 0
BBX 5 1 2 4
BITMAP
F8
ENDCHAR
STARTCHAR 0336
ENCODING 822
SWIDTH 0 0
DWIDTH 0 0
BBX 8 1 0 5
BITMAP
FF
ENDCHAR
STARTCHAR 0337
ENCODING 823
SWIDTH 0 0
DWIDTH 0 0
BBX 6 4 1 3
BITMAP
04
18
60
80
ENDCHAR
STARTCHAR 0338
ENCODING 824
SWIDTH 0 0
DWIDTH 0 0
BBX 6 9 1 -1
BITMAP
04
08
08
10
10
20
40
40
80
ENDCHAR
STARTCHAR 0394
ENCODING 916
SWIDTH 576 0
DWIDTH 8 0
BBX 8 10 0 0
BITMAP
18
18
1C
34
24
26
62
42
43
FF
ENDCHAR
STARTCHAR 03A9
ENCODING 937
SWIDTH 576 0
DWIDTH 8 0
BBX 8 10 0 0
BITMAP
1C
7E
43
C3
C1
C1
C1
43
42
F7
ENDCHAR
STARTCHAR 03BC
ENCODING 956
SWIDTH 576 0
DWIDTH 8 0
BBX 7 9 1 -2
BITMAP
84
84
84
84
84
CC
F6
80
80
ENDCHAR
STARTCHAR 03C0
ENCODING 960
SWIDTH 576 0
DWIDTH 8 0
BBX 8 7 0 0
BITMAP
FF
26
26
26
26
66
42
ENDCHAR
STARTCHAR 1E24
ENCODING 7716
SWIDTH 576 0
DWIDTH 8 0
BBX 6 12 1 -2
BITMAP
84
84
84
84
84
FC
84
84
84
84
00
30
ENDCHAR
STARTCHAR 1E25
ENCODING 7717
SWIDTH 576 0
DWIDTH 8 0
BBX 6 12 1 -2
BITMAP
C0
C0
C0
FC
C4
C4
C4
C4
C4
C4
00
30
ENDCHAR
STARTCHAR 1E62
ENCODING 7778
SWIDTH 576 0
DWIDTH 8 0
BBX 7 12 1 -2
BITMAP
38
EC
86
80
F0
3C
06
86
86
7C
00
30
ENDCHAR
STARTCHAR 1E63
ENCODING 7779
SWIDTH 576 0
DWIDTH 8 0
BBX 6 9 1 -2
BITMAP
7C
C4
C0
7C
04
84
7C
00
30
ENDCHAR
STARTCHAR 1E6C
ENCODING 7788
SWIDTH 576 0
DWIDTH 8 0
BBX 8 12 0 -2
BITMAP
FF
FF
18
18
18
18
18
18
18
18
00
18
ENDCHAR
STARTCHAR 1E6D
ENCODING 7789
SWIDTH 576 0
DWIDTH 8 0
BBX 6 11 1 -2
BITMAP
20
20
FC
20
20
20
20
20
3C
00
18
ENDCHAR
STARTCHAR 1E80
ENCODING 7808
SWIDTH 576 0
DWIDTH 8 0
BBX 8 12 0 0
BITMAP
30
08
89
99
D9
D9
59
57
56
66
66
66
ENDCHAR
STARTCHAR 1E81
ENCODING 7809
SWIDTH 576 0
DWIDTH 8 0
BBX 8 11 0 0
BITMAP
10
10
08
00
99
D9
59
57
56
66
66
ENDCHAR
STARTCHAR 1E82
ENCODING 7810
SWIDTH 576 0
DWIDTH 8 0
BBX 8 12 0 0
BITMAP
0C
08
89
99
D9
D9
59
57
56
66
66
66
ENDCHAR
STARTCHAR 1E83
ENCODING 7811
SWIDTH 576 0
DWIDTH 8 0
BBX 8 11 0 0
BITMAP
04
08
18
00
99
D9
59
57
56
66
66
ENDCHAR
STARTCHAR 1E84
ENCODING 7812
SWIDTH 576 0
DWIDTH 8 0
BBX 8 12 0 0
BITMAP
24
00
89
99
D9
D9
59
57
56
66
66
66
ENDCHAR
STARTCHAR 1E85
ENCODING 7813
SWIDTH 576 0
DWIDTH 8 0
BBX 8 10 0 0
BITMAP
24
00
00
99
D9
59
57
56
66
66
ENDCHAR
STARTCHAR 1E9E
ENCODING 7838
SWIDTH 576 0
DWIDTH 8 0
BBX 7 10 1 0
BITMAP
38
6C
C6
86
8C
9C
86
86
86
9C
ENDCHAR
STARTCHAR 1EA0
ENCODING 7840
SWIDTH 576 0
DWIDTH 8 0
BBX 8 12 0 -2
BITMAP
18
18
1C
34
24
26
62
7E
43
C1
00
18
ENDCHAR
STARTCHAR 1EA1
ENCODING 7841
SWIDTH 576 0
DWIDTH 8 0
BBX 7 9 1 -2
BITMAP
78
CC
0C
7C
8C
8C
F6
00
30
ENDCHAR
STARTCHAR 1EA2
ENCODING 7842
SWIDTH 576 0
DWIDTH 8 0
BBX 8 13 0 0
BITMAP
1C
0C
00
18
18
1C
34
24
26
62
7E
43
C1
ENDCHAR
STARTCHAR 1EA3
ENCODING 7843
SWIDTH 576 0
DWIDTH 8 0
BBX 7 11 1 0
BITMAP
30
08
10
00
78
CC
0C
7C
8C
8C
F6
ENDCHAR
STARTCHAR 1EA4
ENCODING 7844
SWIDTH 576 0
DWIDTH 8 0
BBX 8 15 0 0
BITMAP
04
08
00
1C
22
18
18
1C
34
24
26
62
7E
43
C1
ENDCHAR
STARTCHAR 1EA5
ENCODING 7845
SWIDTH 576 0
DWIDTH 8 0
BBX 7 13 1 0
BITMAP
08
10
00
30
4C
00
78
CC
0C
7C
8C
8C
F6
ENDCHAR
STARTCHAR 1EA6
ENCODING 7846
SWIDTH 576 0
DWIDTH 8 0
BBX 8 15 0 0
BITMAP
30
10
08
1C
22
18
18
1C
34
24
26
62
7E
43
C1
ENDCHAR
STARTCHAR 1EA7
ENCODING 7847
SWIDTH 576 0
DWIDTH 8 0
BBX 7 13 1 0
BITMAP
40
20
10
30
4C
00
78
CC
0C
7C
8C
8C
F6
ENDCHAR
STARTCHAR 1EA8
ENCODING 7848
SWIDTH 576 0
DWIDTH 8 0
BBX 8 15 0 0
BITMAP
1C
08
00
1C
22
18
18
1C
34
24
26
62
7E
43
C1
ENDCHAR
STARTCHAR 1EA9
ENCODING 7849
SWIDTH 576 0
DWIDTH 8 0
BBX 7 13 1 0
BITMAP
30
10
00
30
4C
00
78
CC
0C
7C
8C
8C
F6
ENDCHAR
STARTCHAR 1EAA
ENCODING 7850
SWIDTH 576 0
DWIDTH 8 0
BBX 8 14 0 0
BITMAP
3E
00
1C
22
18
18
1C
34
24
26
62
7E
43
C1
ENDCHAR
STARTCHAR 1EAB
ENCODING 7851
SWIDTH 576 0
DWIDTH 8 0
BBX 7 12 1 0
BITMAP
7C
80
30
4C
00
78
CC
0C
7C
8C
8C
F6
ENDCHAR
STARTCHAR 1EAC
ENCODING 7852
SWIDTH 576 0
DWIDTH 8 0
BBX 8 14 0 -2
BITMAP
1C
20
18
18
1C
34
24
26
62
7E
43
C1
00
18
ENDCHAR
STARTCHAR 1EAD
ENCODING 7853
SWIDTH 576 0
DWIDTH 8 0
BBX 7 13 1 -2
BITMAP
30
30
48
00
78
CC
0C
7C
8C
8C
F6
00
30
ENDCHAR
STARTCHAR 1EAE
ENCODING 7854
SWIDTH 576 0
DWIDTH 8 0
BBX 8 14 0 0
BITMAP
0C
08
3E
00
18
18
1C
34
24
26
62
7E
43
C1
ENDCHAR
STARTCHAR 1EAF
ENCODING 7855
SWIDTH 576 0
DWIDTH 8 0
BBX 7 12 1 0
BITMAP
18
B0
4C
30
00
78
CC
0C
7C
8C
8C
F6
ENDCHAR
STARTCHAR 1EB0
ENCODING 7856
SWIDTH 576 0
DWIDTH 8 0
BBX 8 14 0 0
BITMAP
30
08
36
08
18
18
1C
34
24
26
62
7E
43
C1
ENDCHAR
STARTCHAR 1EB1
ENCODING 7857
SWIDTH 576 0
DWIDTH 8 0
BBX 7 12 1 0
BITMAP
60
94
48
30
00
78
CC
0C
7C
8C
8C
F6
ENDCHAR
STARTCHAR 1EB2
ENCODING 7858
SWIDTH 576 0
DWIDTH 8 0
BBX 8 15 0 0
BITMAP
18
08
10
36
08
18
18
1C
34
24
26
62
7E
43
C1
ENDCHAR
STARTCHAR 1EB3
ENCODING 7859
SWIDTH 576 0
DWIDTH 8 0
BBX 7 13 1 0
BITMAP
30
10
A4
48
30
00
78
CC
0C
7C
8C
8C
F6
ENDCHAR
STARTCHAR 1EB4
ENCODING 7860
SWIDTH 576 0
DWIDTH 8 0
BBX 8 14 0 0
BITMAP
3E
00
36
08
18
18
1C
34
24
26
62
7E
43
C1
ENDCHAR
STARTCHAR 1EB5
ENCODING 7861
SWIDTH 576 0
DWIDTH 8 0
BBX 7 12 1 0
BITMAP
7C
84
48
30
00
78
CC
0C
7C
8C
8C
F6
ENDCHAR
STARTCHAR 1EB6
ENCODING 7862
SWIDTH 576 0
DWIDTH 8 0
BBX 8 14 0 -2
BITMAP
34
08
18
18
1C
34
24
26
62
7E
43
C1
00
18
ENDCHAR
STARTCHAR 1EB7
ENCODING 7863
SWIDTH 576 0
DWIDTH 8 0
BBX 7 12 1 -2
BITMAP
48
30
00
78
CC
0C
7C
8C
8C
F6
00
30
ENDCHAR
STARTCHAR 1EB8
ENCODING 7864
SWIDTH 576 0
DWIDTH 8 0
BBX 7 12 1 -2
BITMAP
FC
FC
C0
C0
C0
FC
C0
C0
C0
FE
00
10
ENDCHAR
STARTCHAR 1EB9
ENCODING 7865
SWIDTH 576 0
DWIDTH 8 0
BBX 6 9 1 -2
BITMAP
78
C4
84
FC
84
C4
78
00
30
ENDCHAR
STARTCHAR 1EBA
ENCODING 7866
SWIDTH 576 0
DWIDTH 8 0
BBX 7 13 1 0
BITMAP
38
08
10
FC
FC
C0
C0
C0
FC
C0
C0
C0
FE
ENDCHAR
STARTCHAR 1EBB
ENCODING 7867
SWIDTH 576 0
DWIDTH 8 0
BBX 6 11 1 0
BITMAP
30
08
10
00
78
C4
84
FC
84
C4
78
ENDCHAR
STARTCHAR 1EBC
ENCODING 7868
SWIDTH 576 0
DWIDTH 8 0
BBX 7 12 1 0
BITMAP
7C
00
FC
FC
C0
C0
C0
FC
C0
C0
C0
FE
ENDCHAR
STARTCHAR 1EBD
ENCODING 7869
SWIDTH 576 0
DWIDTH 8 0
BBX 6 10 1 0
BITMAP
74
48
00
78
C4
84
FC
84
C4
78
ENDCHAR
STARTCHAR 1EBE
ENCODING 7870
SWIDTH 576 0
DWIDTH 8 0
BBX 7 15 1 0
BITMAP
08
10
00
38
44
FC
FC
C0
C0
C0
FC
C0
C0
C0
FE
ENDCHAR
STARTCHAR 1EBF
ENCODING 7871
SWIDTH 576 0
DWIDTH 8 0
BBX 6 13 1 0
BITMAP
08
10
00
38
4C
00
78
C4
84
FC
84
C4
78
ENDCHAR
STARTCHAR 1EC0
ENCODING 7872
SWIDTH 576 0
DWIDTH 8 0
BBX 7 15 1 0
BITMAP
60
30
00
38
44
FC
FC
C0
C0
C0
FC
C0
C0
C0
FE
ENDCHAR
STARTCHAR 1EC1
ENCODING 7873
SWIDTH 576 0
DWIDTH 8 0
BBX 6 13 1 0
BITMAP
60
30
00
38
4C
00
78
C4
84
FC
84
C4
78
ENDCHAR
STARTCHAR 1EC2
ENCODING 7874
SWIDTH 576 0
DWIDTH 8 0
BBX 7 15 1 0
BITMAP
38
18
00
38
44
FC
FC
C0
C0
C0
FC
C0
C0
C0
FE
ENDCHAR
STARTCHAR 1EC3
ENCODING 7875
SWIDTH 576 0
DWIDTH 8 0
BBX 6 13 1 0
BITMAP
38
10
00
38
4C
00
78
C4
84
FC
84
C4
78
ENDCHAR
STARTCHAR 1EC4
ENCODING 7876
SWIDTH 576 0
DWIDTH 8 0
BBX 7 14 1 0
BITMAP
7C
00
38
44
FC
FC
C0
C0
C0
FC
C0
C0
C0
FE
ENDCHAR
STARTCHAR 1EC5
ENCODING 7877
SWIDTH 576 0
DWIDTH 8 0
BBX 6 12 1 0
BITMAP
7C
00
38
4C
00
78
C4
84
FC
84
C4
78
ENDCHAR
STARTCHAR 1EC6
ENCODING 7878
SWIDTH 576 0
DWIDTH 8 0
BBX 7 14 1 -2
BITMAP
38
44
FC
FC
C0
C0
C0
FC
C0
C0
C0
FE
00
10
ENDCHAR
STARTCHAR 1EC7
ENCODING 7879
SWIDTH 576 0
DWIDTH 8 0
BBX 6 13 1 -2
BITMAP
10
38
4C
00
78
C4
84
FC
84
C4
78
00
30
ENDCHAR
STARTCHAR 1EC8
ENCODING 7880
SWIDTH 576 0
DWIDTH 8 0
BBX 6 13 1 0
BITMAP
38
18
00
FC
FC
30
30
30
30
30
30
30
FC
ENDCHAR
STARTCHAR 1EC9
ENCODING 7881
SWIDTH 576 0
DWIDTH 8 0
BBX 7 11 1 0
BITMAP
30
08
18
00
F0
10
10
10
10
10
FE
ENDCHAR
STARTCHAR 1ECA
ENCODING 7882
SWIDTH 576 0
DWIDTH 8 0
BBX 6 12 1 -2
BITMAP
FC
FC
30
30
30
30
30
30
30
FC
00
30
ENDCHAR
STARTCHAR 1ECB
ENCODING 7883
SWIDTH 576 0
DWIDTH 8 0
BBX 7 12 1 -2
BITMAP
10
00
00
F0
10
10
10
10
10
FE
00
10
ENDCHAR
STARTCHAR 1ECC
ENCODING 7884
SWIDTH 576 0
DWIDTH 8 0
BBX 7 12 1 -2
BITMAP
38
FC
86
86
86
86
86
86
C4
78
00
30
ENDCHAR
STARTCHAR 1ECD
ENCODING 7885
SWIDTH 576 0
DWIDTH 8 0
BBX 6 9 1 -2
BITMAP
78
C4
84
84
84
C4
78
00
30
ENDCHAR
STARTCHAR 1ECE
ENCODING 7886
SWIDTH 576 0
DWIDTH 8 0
BBX 7 13 1 0
BITMAP
38
18
00
38
FC
86
86
86
86
86
86
C4
78
ENDCHAR
STARTCHAR 1ECF
ENCODING 7887
SWIDTH 576 0
DWIDTH 8 0
BBX 6 11 1 0
BITMAP
30
08
10
00
78
C4
84
84
84
C4
78
ENDCHAR
STARTCHAR 1ED0
ENCODING 7888
SWIDTH 576 0
DWIDTH 8 0
BBX 7 15 1 0
BITMAP
08
10
00
38
44
38
FC
86
86
86
86
86
86
C4
78
ENDCHAR
STARTCHAR 1ED1
ENCODING 7889
SWIDTH 576 0
DWIDTH 8 0
BBX 6 13 1 0
BITMAP
08
10
00
30
4C
00
78
C4
84
84
84
C4
78
ENDCHAR
STARTCHAR 1ED2
ENCODING 7890
SWIDTH 576 0
DWIDTH 8 0
BBX 7 15 1 0
BITMAP
60
20
10
38
44
38
FC
86
86
86
86
86
86
C4
78
ENDCHAR
STARTCHAR 1ED3
ENCODING 7891
SWIDTH 576 0
DWIDTH 8 0
BBX 6 13 1 0
BITMAP
60
20
10
30
4C
00
78
C4
84
84
84
C4
78
ENDCHAR
STARTCHAR 1ED4
ENCODING 7892
SWIDTH 576 0
DWIDTH 8 0
BBX 7 15 1 0
BITMAP
38
10
00
38
44
38
FC
86
86
86
86
86
86
C4
78
ENDCHAR
STARTCHAR 1ED5
ENCODING 7893
SWIDTH 576 0
DWIDTH 8 0
BBX 6 13 1 0
BITMAP
38
10
00
30
4C
00
78
C4
84
84
84
C4
78
ENDCHAR
STARTCHAR 1ED6
ENCODING 7894
SWIDTH 576 0
DWIDTH 8 0
BBX 7 14 1 0
BITMAP
7C
00
38
44
38
FC
86
86
86
86
86
86
C4
78
ENDCHAR
STARTCHAR 1ED7
ENCODING 7895
SWIDTH 576 0
DWIDTH 8 0
BBX 6 12 1 0
BITMAP
7C
00
30
4C
00
78
C4
84
84
84
C4
78
ENDCHAR
STARTCHAR 1ED8
ENCODING 7896
SWIDTH 576 0
DWIDTH 8 0
BBX 7 14 1 -2
BITMAP
38
40
38
FC
86
86
86
86
86
86
C4
78
00
30
ENDCHAR
STARTCHAR 1ED9
ENCODING 7897
SWIDTH 576 0
DWIDTH 8 0
BBX 6 13 1 -2
BITMAP
10
38
4C
00
78
C4
84
84
84
C4
78
00
30
ENDCHAR
STARTCHAR 1EDA
ENCODING 7898
SWIDTH 576 0
DWIDTH 8 0
BBX 7 12 1 0
BITMAP
1A
12
3E
FC
86
86
86
86
86
86
C4
78
ENDCHAR
STARTCHAR 1EDB
ENCODING 7899
SWIDTH 576 0
DWIDTH 8 0
BBX 7 11 1 0
BITMAP
18
10
30
02
7A
C4
84
84
84
C4
78
ENDCHAR
STARTCHAR 1EDC
ENCODING 7900
SWIDTH 576 0
DWIDTH 8 0
BBX 7 12 1 0
BITMAP
62
12
3E
FC
86
86
86
86
86
86
C4
78
ENDCHAR
STARTCHAR 1EDD
ENCODING 7901
SWIDTH 576 0
DWIDTH 8 0
BBX 7 11 1 0
BITMAP
60
20
10
02
7A
C4
84
84
84
C4
78
ENDCHAR
STARTCHAR 1EDE
ENCODING 7902
SWIDTH 576 0
DWIDTH 8 0
BBX 7 13 1 0
BITMAP
38
1A
02
3E
FC
86
86
86
86
86
86
C4
78
ENDCHAR
STARTCHAR 1EDF
ENCODING 7903
SWIDTH 576 0
DWIDTH 8 0
BBX 7 11 1 0
BITMAP
30
08
10
02
7A
C4
84
84
84
C4
78
ENDCHAR
STARTCHAR 1EE0
ENCODING 7904
SWIDTH 576 0
DWIDTH 8 0
BBX 7 12 1 0
BITMAP
78
02
3A
FC
86
86
86
86
86
86
C4
78
ENDCHAR
STARTCHAR 1EE1
ENCODING 7905
SWIDTH 576 0
DWIDTH 8 0
BBX 7 10 1 0
BITMAP
78
4A
02
7E
C4
84
84
84
C4
78
ENDCHAR
STARTCHAR 1EE2
ENCODING 7906
SWIDTH 576 0
DWIDTH 8 0
BBX 7 14 1 -2
BITMAP
02
02
3E
FC
86
86
86
86
86
86
C4
78
00
30
ENDCHAR
STARTCHAR 1EE3
ENCODING 7907
SWIDTH 576 0
DWIDTH 8 0
BBX 7 10 1 -2
BITMAP
02
7A
C4
84
84
84
C4
78
00
30
ENDCHAR
STARTCHAR 1EE4
ENCODING 7908
SWIDTH 576 0
DWIDTH 8 0
BBX 6 12 1 -2
BITMAP
84
84
84
84
84
84
84
84
CC
78
00
30
ENDCHAR
STARTCHAR 1EE5
ENCODING 7909
SWIDTH 576 0
DWIDTH 8 0
BBX 7 9 1 -2
BITMAP
84
84
84
84
84
CC
76
00
30
ENDCHAR
STARTCHAR 1EE6
ENCODING 7910
SWIDTH 576 0
DWIDTH 8 0
BBX 6 13 1 0
BITMAP
38
18
00
84
84
84
84
84
84
84
84
CC
78
ENDCHAR
STARTCHAR 1EE7
ENCODING 7911
SWIDTH 576 0
DWIDTH 8 0
BBX 7 11 1 0
BITMAP
30
08
10
00
84
84
84
84
84
CC
76
ENDCHAR
STARTCHAR 1EE8
ENCODING 7912
SWIDTH 576 0
DWIDTH 8 0
BBX 8 12 1 0
BITMAP
1B
13
86
84
84
84
84
84
84
84
CC
78
ENDCHAR
STARTCHAR 1EE9
ENCODING 7913
SWIDTH 576 0
DWIDTH 8 0
BBX 8 11 1 0
BITMAP
18
10
23
02
84
84
84
84
84
CC
76
ENDCHAR
STARTCHAR 1EEA
ENCODING 7914
SWIDTH 576 0
DWIDTH 8 0
BBX 8 12 1 0
BITMAP
63
13
86
84
84
84
84
84
84
84
CC
78
ENDCHAR
STARTCHAR 1EEB
ENCODING 7915
SWIDTH 576 0
DWIDTH 8 0
BBX 8 11 1 0
BITMAP
60
20
13
02
84
84
84
84
84
CC
76
ENDCHAR
STARTCHAR 1EEC
ENCODING 7916
SWIDTH 576 0
DWIDTH 8 0
BBX 8 13 1 0
BITMAP
38
1B
03
86
84
84
84
84
84
84
84
CC
78
ENDCHAR
STARTCHAR 1EED
ENCODING 7917
SWIDTH 576 0
DWIDTH 8 0
BBX 8 11 1 0
BITMAP
30
08
13
02
84
84
84
84
84
CC
76
ENDCHAR
STARTCHAR 1EEE
ENCODING 7918
SWIDTH 576 0
DWIDTH 8 0
BBX 8 12 1 0
BITMAP
7F
03
86
84
84
84
84
84
84
84
CC
78
ENDCHAR
STARTCHAR 1EEF
ENCODING 7919
SWIDTH 576 0
DWIDTH 8 0
BBX 8 10 1 0
BITMAP
78
53
02
84
84
84
84
84
CC
76
ENDCHAR
STARTCHAR 1EF0
ENCODING 7920
SWIDTH 576 0
DWIDTH 8 0
BBX 8 14 1 -2
BITMAP
03
03
86
84
84
84
84
84
84
84
CC
78
00
30
ENDCHAR
STARTCHAR 1EF1
ENCODING 7921
SWIDTH 576 0
DWIDTH 8 0
BBX 8 11 1 -2
BITMAP
03
02
84
84
84
84
84
CC
76
00
30
ENDCHAR
STARTCHAR 1EF2
ENCODING 7922
SWIDTH 576 0
DWIDTH 8 0
BBX 8 12 0 0
BITMAP
30
08
C1
43
62
24
3C
18
18
18
18
18
ENDCHAR
STARTCHAR 1EF3
ENCODING 7923
SWIDTH 576 0
DWIDTH 8 0
BBX 7 14 1 -3
BITMAP
20
20
10
00
86
C4
4C
68
28
30
30
30
E0
40
ENDCHAR
STARTCHAR 1EF4
ENCODING 7924
SWIDTH 576 0
DWIDTH 8 0
BBX 8 12 0 -2
BITMAP
C1
43
62
24
3C
18
18
18
18
18
00
18
ENDCHAR
STARTCHAR 1EF5
ENCODING 7925
SWIDTH 576 0
DWIDTH 8 0
BBX 7 10 1 -3
BITMAP
86
C4
4C
68
28
30
30
30
E6
40
ENDCHAR
STARTCHAR 1EF6
ENCODING 7926
SWIDTH 576 0
DWIDTH 8 0
BBX 8 13 0 0
BITMAP
1C
0C
00
C1
43
62
24
3C
18
18
18
18
18
ENDCHAR
STARTCHAR 1EF7
ENCODING 7927
SWIDTH 576 0
DWIDTH 8 0
BBX 7 14 1 -3
BITMAP
30
08
10
00
86
C4
4C
68
28
30
30
30
E0
40
ENDCHAR
STARTCHAR 1EF8
ENCODING 7928
SWIDTH 576 0
DWIDTH 8 0
BBX 8 12 0 0
BITMAP
3E
00
C1
43
62
24
3C
18
18
18
18
18
ENDCHAR
STARTCHAR 1EF9
ENCODING 7929
SWIDTH 576 0
DWIDTH 8 0
BBX 7 13 1 -3
BITMAP
74
48
00
86
C4
4C
68
28
30
30
30
E0
40
ENDCHAR
STARTCHAR 2009
ENCODING 8201
SWIDTH 576 0
DWIDTH 8 0
BBX 0 0 0 0
BITMAP
ENDCHAR
STARTCHAR 2010
ENCODING 8208
SWIDTH 576 0
DWIDTH 8 0
BBX 4 1 2 3
BITMAP
F0
ENDCHAR
STARTCHAR 2011
ENCODING 8209
SWIDTH 576 0
DWIDTH 8 0
BBX 4 1 2 3
BITMAP
F0
ENDCHAR
STARTCHAR 2013
ENCODING 8211
SWIDTH 576 0
DWIDTH 8 0
BBX 6 1 1 3
BITMAP
FC
ENDCHAR
STARTCHAR 2014
ENCODING 8212
SWIDTH 576 0
DWIDTH 8 0
BBX 8 1 0 3
BITMAP
FF
ENDCHAR
STARTCHAR 2018
ENCODING 8216
SWIDTH 576 0
DWIDTH 8 0
BBX 2 4 3 6
BITMAP
40
40
C0
C0
ENDCHAR
STARTCHAR 2019
ENCODING 8217
SWIDTH 576 0
DWIDTH 8 0
BBX 2 4 3 6
BITMAP
C0
C0
40
C0
ENDCHAR
STARTCHAR 201A
ENCODING 8218
SWIDTH 576 0
DWIDTH 8 0
BBX 2 4 3 -2
BITMAP
C0
C0
40
C0
ENDCHAR
STARTCHAR 201C
ENCODING 8220
SWIDTH 576 0
DWIDTH 8 0
BBX 4 4 2 6
BITMAP
50
90
D0
D0
ENDCHAR
STARTCHAR 201D
ENCODING 8221
SWIDTH 576 0
DWIDTH 8 0
BBX 4 4 2 6
BITMAP
D0
D0
50
90
ENDCHAR
STARTCHAR 201E
ENCODING 8222
SWIDTH 576 0
DWIDTH 8 0
BBX 4 4 2 -2
BITMAP
D0
D0
50
90
ENDCHAR
STARTCHAR 2020
ENCODING 8224
SWIDTH 576 0
DWIDTH 8 0
BBX 6 12 1 -2
BITMAP
10
10
10
FC
10
10
10
10
10
10
10
10
ENDCHAR
STARTCHAR 2021
ENCODING 8225
SWIDTH 576 0
DWIDTH 8 0
BBX 6 12 1 -2
BITMAP
10
10
10
FC
10
10
10
10
10
FC
10
10
ENDCHAR
STARTCHAR 2022
ENCODING 8226
SWIDTH 576 0
DWIDTH 8 0
BBX 4 4 2 3
BITMAP
60
F0
F0
70
ENDCHAR
STARTCHAR 2026
ENCODING 8230
SWIDTH 576 0
DWIDTH 8 0
BBX 7 2 1 0
BITMAP
B6
B6
ENDCHAR
STARTCHAR 2030
ENCODING 8240
SWIDTH 576 0
DWIDTH 8 0
BBX 8 10 0 0
BITMAP
20
50
90
50
60
FF
76
99
99
76
ENDCHAR
STARTCHAR 2032
ENCODING 8242
SWIDTH 576 0
DWIDTH 8 0
BBX 2 3 3 7
BITMAP
40
C0
80
ENDCHAR
STARTCHAR 2033
ENCODING 8243
SWIDTH 576 0
DWIDTH 8 0
BBX 4 3 2 7
BITMAP
50
D0
A0
ENDCHAR
STARTCHAR 2039
ENCODING 8249
SWIDTH 576 0
DWIDTH 8 0
BBX 3 5 3 2
BITMAP
60
C0
80
40
60
ENDCHAR
STARTCHAR 203A
ENCODING 8250
SWIDTH 576 0
DWIDTH 8 0
BBX 3 5 3 2
BITMAP
80
40
60
C0
80
ENDCHAR
STARTCHAR 2044
ENCODING 8260
SWIDTH 576 0
DWIDTH 8 0
BBX 8 10 0 0
BITMAP
01
01
02
04
08
00
10
20
40
80
ENDCHAR
STARTCHAR 2052
ENCODING 8274
SWIDTH 576 0
DWIDTH 8 0
BBX 8 12 0 -2
BITMAP
01
62
62
04
04
08
18
10
20
20
42
C0
ENDCHAR
STARTCHAR 2070
ENCODING 8304
SWIDTH 576 0
DWIDTH 8 0
BBX 4 5 2 6
BITMAP
70
90
90
90
70
ENDCHAR
STARTCHAR 2074
ENCODING 8308
SWIDTH 576 0
DWIDTH 8 0
BBX 4 5 2 6
BITMAP
40
60
A0
F0
20
ENDCHAR
STARTCHAR 2075
ENCODING 8309
SWIDTH 576 0
DWIDTH 8 0
BBX 4 5 2 6
BITMAP
70
80
F0
10
F0
ENDCHAR
STARTCHAR 2076
ENCODING 8310
SWIDTH 576 0
DWIDTH 8 0
BBX 4 5 2 6
BITMAP
70
90
F0
90
F0
ENDCHAR
STARTCHAR 2077
ENCODING 8311
SWIDTH 576 0
DWIDTH 8 0
BBX 4 5 2 6
BITMAP
F0
20
20
40
40
ENDCHAR
STARTCHAR 2078
ENCODING 8312
SWIDTH 576 0
DWIDTH 8 0
BBX 4 5 2 6
BITMAP
70
90
60
90
F0
ENDCHAR
STARTCHAR 2079
ENCODING 8313
SWIDTH 576 0
DWIDTH 8 0
BBX 4 5 2 6
BITMAP
E0
90
F0
10
F0
ENDCHAR
STARTCHAR 207F
ENCODING 8319
SWIDTH 576 0
DWIDTH 8 0
BBX 4 5 2 5
BITMAP
A0
D0
90
90
90
ENDCHAR
STARTCHAR 2080
ENCODING 8320
SWIDTH 576 0
DWIDTH 8 0
BBX 4 5 2 -2
BITMAP
70
90
90
90
70
ENDCHAR
STARTCHAR 2081
ENCODING 8321
SWIDTH 576 0
DWIDTH 8 0
BBX 4 5 2 -2
BITMAP
E0
20
20
20
F0
ENDCHAR
STARTCHAR 2082
ENCODING 8322
SWIDTH 576 0
DWIDTH 8 0
BBX 4 5 2 -2
BITMAP
70
90
30
40
F0
ENDCHAR
STARTCHAR 2083
ENCODING 8323
SWIDTH 576 0
DWIDTH 8 0
BBX 4 5 2 -2
BITMAP
70
90
60
10
F0
ENDCHAR
STARTCHAR 2084
ENCODING 8324
SWIDTH 576 0
DWIDTH 8 0
BBX 4 5 2 -2
BITMAP
40
60
A0
F0
20
ENDCHAR
STARTCHAR 2085
ENCODING 8325
SWIDTH 576 0
DWIDTH 8 0
BBX 4 5 2 -2
BITMAP
70
80
F0
10
F0
ENDCHAR
STARTCHAR 2086
ENCODING 8326
SWIDTH 576 0
DWIDTH 8 0
BBX 4 5 2 -2
BITMAP
70
90
F0
90
F0
ENDCHAR
STARTCHAR 2087
ENCODING 8327
SWIDTH 576 0
DWIDTH 8 0
BBX 4 5 2 -2
BITMAP
F0
20
20
40
40
ENDCHAR
STARTCHAR 2088
ENCODING 8328
SWIDTH 576 0
DWIDTH 8 0
BBX 4 5 2 -2
BITMAP
70
90
60
90
F0
ENDCHAR
STARTCHAR 2089
ENCODING 8329
SWIDTH 576 0
DWIDTH 8 0
BBX 4 5 2 -2
BITMAP
E0
90
F0
10
F0
ENDCHAR
STARTCHAR 2099
ENCODING 8345
SWIDTH 576 0
DWIDTH 8 0
BBX 4 5 2 -2
BITMAP
A0
D0
90
90
90
ENDCHAR
STARTCHAR 20A1
ENCODING 8353
SWIDTH 576 0
DWIDTH 8 0
BBX 7 12 1 -1
BITMAP
0A
1E
7C
D4
98
A8
A8
B0
D0
70
B8
A0
ENDCHAR
STARTCHAR 20A3
ENCODING 8355
SWIDTH 576 0
DWIDTH 8 0
BBX 7 10 0 0
BITMAP
7E
7E
60
60
60
7E
60
F8
60
60
ENDCHAR
STARTCHAR 20A4
ENCODING 8356
SWIDTH 576 0
DWIDTH 8 0
BBX 7 10 1 0
BITMAP
18
6C
46
40
F8
40
F8
40
40
FC
ENDCHAR
STARTCHAR 20A6
ENCODING 8358
SWIDTH 576 0
DWIDTH 8 0
BBX 8 10 0 0
BITMAP
42
62
62
52
FF
4A
FF
46
46
42
ENDCHAR
STARTCHAR 20A7
ENCODING 8359
SWIDTH 576 0
DWIDTH 8 0
BBX 9 10 0 0
BITMAP
7C00
7E00
4300
FF80
4300
7E00
4000
4000
4000
4000
ENDCHAR
STARTCHAR 20A9
ENCODING 8361
SWIDTH 576 0
DWIDTH 8 0
BBX 8 10 0 0
BITMAP
89
99
D9
D9
FF
57
FF
66
66
66
ENDCHAR
STARTCHAR 20AB
ENCODING 8363
SWIDTH 576 0
DWIDTH 8 0
BBX 7 12 1 -2
BITMAP
04
3E
04
74
CC
84
84
84
CC
74
00
FC
ENDCHAR
STARTCHAR 20AC
ENCODING 8364
SWIDTH 576 0
DWIDTH 8 0
BBX 7 10 0 0
BITMAP
06
1E
30
20
FC
20
FC
30
18
0E
ENDCHAR
STARTCHAR 20AD
ENCODING 8365
SWIDTH 576 0
DWIDTH 8 0
BBX 8 10 0 0
BITMAP
43
42
46
4C
48
FF
4C
44
46
43
ENDCHAR
STARTCHAR 20B1
ENCODING 8369
SWIDTH 576 0
DWIDTH 8 0
BBX 9 10 0 0
BITMAP
7C00
7E00
C380
4300
C380
7E00
4000
4000
4000
4000
ENDCHAR
STARTCHAR 20B2
ENCODING 8370
SWIDTH 576 0
DWIDTH 8 0
BBX 7 12 1 -1
BITMAP
10
38
FC
96
96
90
9E
96
96
D6
7A
10
ENDCHAR
STARTCHAR 20B5
ENCODING 8373
SWIDTH 576 0
DWIDTH 8 0
BBX 7 12 1 -1
BITMAP
08
38
FC
94
96
90
90
A6
A6
E4
78
40
ENDCHAR
STARTCHAR 20B9
ENCODING 8377
SWIDTH 576 0
DWIDTH 8 0
BBX 7 10 1 0
BITMAP
FE
F8
08
FE
18
F0
C0
60
30
18
ENDCHAR
STARTCHAR 20BA
ENCODING 8378
SWIDTH 576 0
DWIDTH 8 0
BBX 7 10 0 0
BITMAP
20
20
28
30
68
B8
60
A2
26
3C
ENDCHAR
STARTCHAR 20BC
ENCODING 8380
SWIDTH 576 0
DWIDTH 8 0
BBX 8 11 0 0
BITMAP
08
1C
7E
4B
C9
C9
C9
C9
C9
C1
C1
ENDCHAR
STARTCHAR 20BD
ENCODING 8381
SWIDTH 576 0
DWIDTH 8 0
BBX 8 10 0 0
BITMAP
7C
7E
43
43
43
FE
40
F8
40
40
ENDCHAR
STARTCHAR 2113
ENCODING 8467
SWIDTH 576 0
DWIDTH 8 0
BBX 6 10 1 0
BITMAP
30
68
44
44
48
48
F0
40
40
78
ENDCHAR
STARTCHAR 2116
ENCODING 8470
SWIDTH 576 0
DWIDTH 8 0
BBX 8 10 0 0
BITMAP
D8
D8
D8
FA
FD
FD
FD
DD
DA
DF
ENDCHAR
STARTCHAR 2117
ENCODING 8471
SWIDTH 576 0
DWIDTH 8 0
BBX 8 10 0 0
BITMAP
3C
42
B9
A5
A7
BD
A1
A1
41
3E
ENDCHAR
STARTCHAR 2122
ENCODING 8482
SWIDTH 576 0
DWIDTH 8 0
BBX 8 6 0 4
BITMAP
F9
59
5B
57
57
55
ENDCHAR
STARTCHAR 2126
ENCODING 8486
SWIDTH 576 0
DWIDTH 8 0
BBX 8 10 0 0
BITMAP
1C
7E
43
C3
C1
C1
C1
43
42
F7
ENDCHAR
STARTCHAR 212E
ENCODING 8494
SWIDTH 576 0
DWIDTH 8 0
BBX 8 10 0 0
BITMAP
1C
62
43
C3
C3
FF
C0
C0
41
3E
ENDCHAR
STARTCHAR 2202
ENCODING 8706
SWIDTH 576 0
DWIDTH 8 0
BBX 6 10 1 0
BITMAP
30
1C
04
04
74
CC
84
84
CC
78
ENDCHAR
STARTCHAR 2205
ENCODING 8709
SWIDTH 576 0
DWIDTH 8 0
BBX 7 7 1 1
BITMAP
7E
CC
9E
B2
E4
CC
B8
ENDCHAR
STARTCHAR 2206
ENCODING 8710
SWIDTH 576 0
DWIDTH 8 0
BBX 8 10 0 0
BITMAP
18
18
1C
34
24
26
62
42
43
FF
ENDCHAR
STARTCHAR 220F
ENCODING 8719
SWIDTH 576 0
DWIDTH 8 0
BBX 8 11 0 -1
BITMAP
FF
62
62
62
62
62
62
62
62
62
62
ENDCHAR
STARTCHAR 2211
ENCODING 8721
SWIDTH 576 0
DWIDTH 8 0
BBX 8 11 0 -1
BITMAP
7F
60
30
10
18
0C
08
10
30
60
FF
ENDCHAR
STARTCHAR 2212
ENCODING 8722
SWIDTH 576 0
DWIDTH 8 0
BBX 7 1 1 3
BITMAP
FE
ENDCHAR
STARTCHAR 2215
ENCODING 8725
SWIDTH 576 0
DWIDTH 8 0
BBX 6 10 1 0
BITMAP
04
04
08
08
10
20
20
40
40
80
ENDCHAR
STARTCHAR 2219
ENCODING 8729
SWIDTH 576 0
DWIDTH 8 0
BBX 2 2 3 3
BITMAP
C0
C0
ENDCHAR
STARTCHAR 221A
ENCODING 8730
SWIDTH 576 0
DWIDTH 8 0
BBX 8 13 0 -2
BITMAP
01
03
02
02
02
02
E6
24
34
34
14
18
18
ENDCHAR
STARTCHAR 221E
ENCODING 8734
SWIDTH 576 0
DWIDTH 8 0
BBX 8 4 0 2
BITMAP
77
99
89
77
ENDCHAR
STARTCHAR 222B
ENCODING 8747
SWIDTH 576 0
DWIDTH 8 0
BBX 3 14 3 -4
BITMAP
60
C0
C0
40
40
40
40
40
40
40
40
40
40
80
ENDCHAR
STARTCHAR 2248
ENCODING 8776
SWIDTH 576 0
DWIDTH 8 0
BBX 8 5 0 1
BITMAP
71
8F
00
71
8E
ENDCHAR
STARTCHAR 2260
ENCODING 8800
SWIDTH 576 0
DWIDTH 8 0
BBX 7 7 1 0
BITMAP
04
FE
FE
10
FE
FE
C0
ENDCHAR
STARTCHAR 2264
ENCODING 8804
SWIDTH 576 0
DWIDTH 8 0
BBX 8 7 0 0
BITMAP
07
3C
C0
78
0F
01
FF
ENDCHAR
STARTCHAR 2265
ENCODING 8805
SWIDTH 576 0
DWIDTH 8 0
BBX 7 7 1 0
BITMAP
C0
38
06
1E
E0
80
FE
ENDCHAR
STARTCHAR 25CA
ENCODING 9674
SWIDTH 576 0
DWIDTH 8 0
BBX 6 10 1 0
BITMAP
30
30
68
48
C4
84
4C
48
38
30
ENDCHAR
STARTCHAR 27E8
ENCODING 10216
SWIDTH 576 0
DWIDTH 8 0
BBX 4 9 2 -1
BITMAP
10
20
40
40
C0
40
20
10
10
ENDCHAR
STARTCHAR 27E9
ENCODING 10217
SWIDTH 576 0
DWIDTH 8 0
BBX 4 9 2 -1
BITMAP
C0
40
20
10
10
20
40
40
80
ENDCHAR
STARTCHAR FB01
ENCODING 64257
SWIDTH 576 0
DWIDTH 8 0
BBX 7 10 0 0
BITMAP
36
20
60
FE
66
66
66
66
66
66
ENDCHAR
STARTCHAR FB02
ENCODING 64258
SWIDTH 576 0
DWIDTH 8 0
BBX 7 10 0 0
BITMAP
36
26
66
F6
66
66
66
66
66
66
ENDCHAR
STARTCHAR FEFF
ENCODING 65279
SWIDTH 0 0
DWIDTH 0 0
BBX 0 0 0 0
BITMAP
ENDCHAR
ENDFONT
